<svg width="111" height="60" fill="none" xmlns="http://www.w3.org/2000/svg"><path fill-rule="evenodd" clip-rule="evenodd" d="M16.226 27.314C9.077 36.887 5.34 48.259 5.362 59.998H0c-.01-4.83.574-9.627 1.733-14.36 1.917-7.798 5.351-15.043 10.193-21.53 4.842-6.487 10.82-11.837 17.753-15.887A59.688 59.688 0 0 1 51.396.629 59.885 59.885 0 0 1 74.37 1.734c7.8 1.917 15.045 5.35 21.534 10.201l-3.206 4.289C81.01 7.495 66.603 3.845 52.165 5.936c-14.449 2.09-27.209 9.681-35.939 21.378Zm34.597-.454c-8.85 2.459-16.215 8.21-20.743 16.202-2.978 5.252-4.484 11.057-4.462 16.938h-5.362c-.01-6.79 1.733-13.495 5.167-19.57 5.231-9.238 13.745-15.887 23.97-18.725l1.43 5.155Zm48.905 31.547c0-.06-.003-.121-.006-.184a3.836 3.836 0 0 1-.005-.184 39.357 39.357 0 0 0-3.066-13.472c-3.022-7.213-8.113-13.375-14.785-17.772l-2.946 4.473a34.298 34.298 0 0 1 9.618 9.487l-.01.01a34.324 34.324 0 0 1 3.184 5.87 34.98 34.98 0 0 1 1.452 4.202l.034.126c.053.194.105.382.15.578l.039.16c.015.064.03.127.047.187l.049.203v.005l.049.203c.054.217.097.434.14.65a34.48 34.48 0 0 1 .694 5.34c0 .053.003.108.005.162l.005.107v.055c0 .058.003.116.006.175v.001a30.069 30.069 0 0 1 .016 1.188h5.362c0-.378-.01-.768-.022-1.147.01-.126.001-.261-.01-.407v-.016ZM29.71 60h5.372c0-3.38.683-6.802 2.123-10.083L32.31 47.75a30.242 30.242 0 0 0-2.6 12.249Zm13.226-12.606c-2.74 3.704-4.17 8.09-4.16 12.606h5.362a15.68 15.68 0 0 1 3.109-9.422c5.199-7.04 15.153-8.534 22.194-3.336l3.184-4.31c-9.423-6.953-22.735-4.96-29.69 4.462Zm-.954-34.948C29.277 17.254 19.214 26.73 13.636 39.109l4.885 2.198C23.515 30.238 32.516 21.77 43.879 17.46c11.362-4.31 23.721-3.931 34.813 1.061 11.08 4.993 19.55 13.992 23.862 25.353A45.717 45.717 0 0 1 105.532 60h5.362c0-6.076-1.105-12.162-3.325-18.021-4.809-12.704-14.287-22.765-26.668-28.342-12.402-5.577-26.212-6-38.918-1.191Zm11.222 23.588-1.463-5.155c7.777-2.21 15.955-1.256 23.018 2.686 9.9 5.523 15.489 15.822 15.51 26.435h-5.35c-.011-8.728-4.615-17.208-12.771-21.757-5.817-3.238-12.543-4.028-18.944-2.209Z" fill="#1A1A1A"/><path fill-rule="evenodd" clip-rule="evenodd" d="M16.226 27.314C9.077 36.887 5.34 48.259 5.362 59.998H0c-.01-4.83.574-9.627 1.733-14.36 1.917-7.798 5.351-15.043 10.193-21.53 4.842-6.487 10.82-11.837 17.753-15.887A59.688 59.688 0 0 1 51.396.629 59.885 59.885 0 0 1 74.37 1.734c7.8 1.917 15.045 5.35 21.534 10.201l-3.206 4.289C81.01 7.495 66.603 3.845 52.165 5.936c-14.449 2.09-27.209 9.681-35.939 21.378Zm34.597-.454c-8.85 2.459-16.215 8.21-20.743 16.202-2.978 5.252-4.484 11.057-4.462 16.938h-5.362c-.01-6.79 1.733-13.495 5.167-19.57 5.231-9.238 13.745-15.887 23.97-18.725l1.43 5.155Zm48.905 31.547c0-.06-.003-.121-.006-.184a3.836 3.836 0 0 1-.005-.184 39.357 39.357 0 0 0-3.066-13.472c-3.022-7.213-8.113-13.375-14.785-17.772l-2.946 4.473a34.298 34.298 0 0 1 9.618 9.487l-.01.01a34.324 34.324 0 0 1 3.184 5.87 34.98 34.98 0 0 1 1.452 4.202l.034.126c.053.194.105.382.15.578l.039.16c.015.064.03.127.047.187l.049.203v.005l.049.203c.054.217.097.434.14.65a34.48 34.48 0 0 1 .694 5.34c0 .053.003.108.005.162l.005.107v.055c0 .058.003.116.006.175v.001a30.069 30.069 0 0 1 .016 1.188h5.362c0-.378-.01-.768-.022-1.147.01-.126.001-.261-.01-.407v-.016ZM29.71 60h5.372c0-3.38.683-6.802 2.123-10.083L32.31 47.75a30.242 30.242 0 0 0-2.6 12.249Zm13.226-12.606c-2.74 3.704-4.17 8.09-4.16 12.606h5.362a15.68 15.68 0 0 1 3.109-9.422c5.199-7.04 15.153-8.534 22.194-3.336l3.184-4.31c-9.423-6.953-22.735-4.96-29.69 4.462Zm-.954-34.948C29.277 17.254 19.214 26.73 13.636 39.109l4.885 2.198C23.515 30.238 32.516 21.77 43.879 17.46c11.362-4.31 23.721-3.931 34.813 1.061 11.08 4.993 19.55 13.992 23.862 25.353A45.717 45.717 0 0 1 105.532 60h5.362c0-6.076-1.105-12.162-3.325-18.021-4.809-12.704-14.287-22.765-26.668-28.342-12.402-5.577-26.212-6-38.918-1.191Zm11.222 23.588-1.463-5.155c7.777-2.21 15.955-1.256 23.018 2.686 9.9 5.523 15.489 15.822 15.51 26.435h-5.35c-.011-8.728-4.615-17.208-12.771-21.757-5.817-3.238-12.543-4.028-18.944-2.209Z" fill="#000" fill-opacity=".2"/></svg>