<svg width="313" height="50" fill="none" xmlns="http://www.w3.org/2000/svg"><path d="M81.745 47.875c0-.097-.009-.204-.009-.301a32.26 32.26 0 0 0-2.512-11.043c-2.477-5.913-6.65-10.964-12.12-14.568L64.69 25.63a28.115 28.115 0 0 1 7.885 7.777l-.01.009a28.137 28.137 0 0 1 2.611 4.811c.47 1.118.861 2.264 1.19 3.444.053.196.106.382.15.577.027.098.045.196.072.284.026.116.053.222.08.338.044.177.08.355.115.532.302 1.456.497 2.912.568 4.377 0 .089.01.177.01.266 0 .098.008.195.008.302.009.275.009.541.009.817h4.395c0-.311-.009-.63-.018-.941.009-.107 0-.222-.009-.347Zm-57.39 1.305h4.403c0-2.769.56-5.574 1.74-8.264l-4.013-1.775a24.788 24.788 0 0 0-2.13 10.04Z" fill="#1A1A1A"/><path d="M24.656 35.296c3.712-6.55 9.75-11.265 17.003-13.28l-1.172-4.225c-8.381 2.326-15.36 7.776-19.648 15.348-2.815 4.98-4.244 10.475-4.235 16.041h4.395c-.018-4.82 1.216-9.578 3.657-13.884Zm10.539 3.551a17.232 17.232 0 0 0-3.41 10.333h4.395a12.85 12.85 0 0 1 2.548-7.723c4.262-5.77 12.421-6.995 18.192-2.734l2.61-3.533c-7.724-5.7-18.635-4.066-24.335 3.657Z" fill="#1A1A1A"/><path d="M4.395 49.18C4.377 39.557 7.44 30.236 13.3 22.389c7.156-9.587 17.615-15.81 29.46-17.524C54.593 3.152 66.402 6.144 75.982 13.3l2.628-3.516c-5.318-3.977-11.258-6.79-17.65-8.362A49.088 49.088 0 0 0 42.129.516a48.925 48.925 0 0 0-17.802 6.222A48.807 48.807 0 0 0 9.775 19.761C5.807 25.08 2.992 31.017 1.421 37.41A48.912 48.912 0 0 0 0 49.179h4.394Z" fill="#1A1A1A"/><path d="M34.414 10.2c-10.415 3.942-18.663 11.71-23.235 21.856l4.004 1.802c4.093-9.072 11.471-16.014 20.785-19.547 9.313-3.533 19.444-3.223 28.535.87 9.083 4.092 16.026 11.469 19.56 20.781a37.487 37.487 0 0 1 2.442 13.218H90.9c0-4.98-.906-9.969-2.726-14.771-3.942-10.413-11.711-18.66-21.86-23.232-10.165-4.571-21.485-4.918-31.9-.976Z" fill="#1A1A1A"/><path d="m42.413 25.31 1.199 4.226c5.247-1.492 10.76-.844 15.528 1.81 6.686 3.73 10.46 10.68 10.468 17.835h4.386c-.018-8.7-4.599-17.142-12.714-21.67a24.645 24.645 0 0 0-18.867-2.2ZM291.368 50c-12.785 0-21.575-8.256-21.575-22.903 0-14.647 8.79-22.903 21.575-22.903s21.575 8.256 21.575 22.903c0 14.647-8.79 22.903-21.575 22.903Zm0-39.06c-9.056 0-14.561 6.214-14.561 16.157 0 9.942 5.505 16.067 14.561 16.067 9.056 0 14.561-6.125 14.561-16.067 0-9.943-5.505-16.157-14.561-16.157Zm-82.659 38.971c-4.795 0-7.636-2.663-8.257-7.723l-3.463-29.56c-.089-.977-.622-1.599-1.421-1.599s-1.509.622-1.509 1.687v36.307h-6.836V12.45c0-5.15 3.551-8.256 8.345-8.256 4.795 0 7.636 2.84 8.169 7.723l3.285 28.673c.177 1.598.888 2.308 1.687 2.308s1.509-.71 1.687-2.308l3.285-28.673c.532-4.882 3.462-7.723 8.257-7.723 4.794 0 8.257 3.107 8.257 8.256v36.573h-6.837V12.716c0-1.065-.621-1.687-1.509-1.687-.799 0-1.332.622-1.421 1.598l-3.462 29.56c-.622 5.06-3.463 7.724-8.257 7.724Zm25.748-22.814c0 14.026 10.21 21.926 22.285 21.926h10.92v-6.835h-10.299c-10.299 0-15.892-6.303-15.892-15.091 0-8.789 5.593-15.003 15.892-15.003h10.299V5.17h-10.92c-12.075 0-22.285 7.901-22.285 21.927Zm-68.099 12.517c3.107 0 5.948-.71 8.079-1.865v11.274h6.926V5.17h-6.926v21.927c0 4.083-3.995 5.504-7.813 5.504-8.967 0-15.271-6.836-15.271-16.6V5.17h-6.836v43.852h6.836V32.69c3.729 4.972 9.056 6.925 15.005 6.925Zm-26.37-16.867v-.888c0-10.12-7.99-17.488-18.112-17.488-10.033 0-17.935 7.723-17.935 17.488v27.164h6.926v-8.7h10.299c10.921 0 18.822-7.545 18.822-17.576Zm-6.925-.888v.977c0 5.77-4.883 10.564-11.72 10.564h-10.476V21.86c0-6.037 4.528-10.653 11.009-10.653 6.659 0 11.187 4.616 11.187 10.652Z" fill="#1A1A1A"/></svg>