<svg width="486" height="78" fill="none" xmlns="http://www.w3.org/2000/svg"><path d="M126.689 74.198c0-.152-.014-.317-.014-.468a49.99 49.99 0 0 0-3.894-17.115c-3.839-9.163-10.306-16.99-18.782-22.576l-3.743 5.681a43.587 43.587 0 0 1 12.219 12.052l-.014.014a43.593 43.593 0 0 1 4.045 7.457 44.282 44.282 0 0 1 1.844 5.338c.083.302.165.591.234.894.042.151.069.303.11.44.042.18.083.344.124.523.069.275.124.55.179.826a43.77 43.77 0 0 1 .881 6.782c0 .138.013.275.013.413 0 .151.014.303.014.468.014.426.014.839.014 1.265h6.811c0-.481-.014-.976-.027-1.458.013-.165 0-.344-.014-.536ZM37.744 76.22h6.825c0-4.293.867-8.64 2.697-12.81l-6.22-2.75a38.417 38.417 0 0 0-3.302 15.56Z" fill="#E5E5EE"/><path d="M38.21 54.702c5.753-10.153 15.11-17.459 26.351-20.581l-1.816-6.55c-12.99 3.605-23.805 12.053-30.45 23.788-4.363 7.718-6.578 16.234-6.565 24.86h6.812c-.028-7.47 1.885-14.844 5.669-21.517Zm16.336 5.503c-3.482 4.705-5.298 10.277-5.284 16.014h6.811a19.92 19.92 0 0 1 3.95-11.97c6.604-8.942 19.25-10.84 28.193-4.237l4.046-5.475c-11.971-8.833-28.882-6.301-37.716 5.668Z" fill="#E5E5EE"/><path d="M6.811 76.22c-.027-14.914 4.72-29.36 13.802-41.522 11.09-14.858 27.3-24.502 45.656-27.158 18.342-2.655 36.642 1.981 51.49 13.07l4.073-5.448C113.589 9 104.384 4.637 94.477 2.202 84.9-.15 75.089-.618 65.292.8a75.825 75.825 0 0 0-27.59 9.644c-8.805 5.146-16.4 11.941-22.552 20.182C9 38.866 4.637 48.07 2.202 57.976A75.805 75.805 0 0 0 0 76.22h6.811Z" fill="#E5E5EE"/><path d="M53.334 15.81c-16.14 6.108-28.923 18.146-36.01 33.87l6.206 2.794c6.343-14.06 17.778-24.82 32.212-30.295 14.435-5.476 30.135-4.994 44.225 1.348 14.077 6.343 24.837 17.775 30.313 32.207a58.081 58.081 0 0 1 3.784 20.485h6.812c0-7.718-1.404-15.45-4.225-22.892-6.109-16.138-18.149-28.92-33.877-36.004-15.755-7.086-33.3-7.622-49.44-1.514Z" fill="#E5E5EE"/><path d="m65.732 39.225 1.858 6.548c8.132-2.31 16.677-1.307 24.066 2.807 10.362 5.778 16.21 16.55 16.223 27.64h6.798c-.028-13.483-7.128-26.567-19.705-33.583-8.971-5.008-19.36-6.219-29.24-3.412ZM451.564 77.49c-19.814 0-33.437-12.795-33.437-35.495 0-22.7 13.623-35.495 33.437-35.495 19.815 0 33.437 12.795 33.437 35.495 0 22.7-13.622 35.495-33.437 35.495Zm0-60.534c-14.035 0-22.566 9.63-22.566 25.039s8.531 24.902 22.566 24.902c14.035 0 22.567-9.493 22.567-24.902s-8.532-25.04-22.567-25.04ZM323.458 77.353c-7.43 0-11.833-4.128-12.797-11.97l-5.366-45.813c-.138-1.514-.963-2.477-2.202-2.477-1.238 0-2.339.963-2.339 2.614v56.27h-10.595V19.295c0-7.98 5.504-12.795 12.934-12.795 7.431 0 11.834 4.402 12.66 11.97l5.091 44.437c.275 2.476 1.376 3.577 2.614 3.577 1.239 0 2.339-1.1 2.615-3.577l5.091-44.438c.825-7.567 5.366-11.969 12.797-11.969 7.43 0 12.797 4.815 12.797 12.795v56.682h-10.596v-56.27c0-1.65-.963-2.614-2.339-2.614-1.238 0-2.064.963-2.201 2.477l-5.367 45.813c-.963 7.842-5.366 11.97-12.797 11.97Zm39.904-35.358c0 21.737 15.824 33.982 34.538 33.982h16.925V65.383h-15.962c-15.961 0-24.63-9.768-24.63-23.388 0-13.62 8.669-23.25 24.63-23.25h15.962V8.012H397.9c-18.714 0-34.538 12.245-34.538 33.982ZM257.823 61.394c4.816 0 9.219-1.101 12.522-2.89v17.473h10.732V8.013h-10.732v33.982c0 6.329-6.192 8.53-12.109 8.53-13.898 0-23.668-10.594-23.668-25.727V8.013h-10.595v67.964h10.595V50.662c5.78 7.705 14.036 10.732 23.255 10.732Zm-40.867-26.14v-1.376c0-15.684-12.384-27.103-28.071-27.103-15.549 0-27.795 11.97-27.795 27.103v42.099h10.733V62.494h15.961c16.925 0 29.172-11.694 29.172-27.24Zm-10.733-1.376v1.513c0 8.943-7.568 16.372-18.163 16.372h-16.237V33.878c0-9.355 7.017-16.51 17.062-16.51 10.32 0 17.338 7.155 17.338 16.51Z" fill="#E5E5EE"/></svg>