<svg width="49" height="55" fill="none" xmlns="http://www.w3.org/2000/svg"><path d="M35.455 54.002c-.237-13.068-.081-18.487-.49-29.706-.123-3.38-.44-8.046-.615-12.447-.043-1.073-.484-2.134-.525-3.15-.202-5.167.067-8.32.067-8.32l2.18.782c-.104 9.066-.14 10.253.386 23.14.526 12.885 1.229 20.724 1.924 29.7h-2.93.003Z" fill="#E5E5E5"/><path d="M35.947 1.1c-1.4 7.062-3.44 13.516-4.824 22.084-1.407 8.704-3.096 19.741-3.372 22.663l-2.487.016c2.487-12.047 2.62-13.766 4.393-22.987C31.488 13.358 32.42 8.396 33.89.375l2.056.723.002.002ZM6.621 54c3.88-13.36 6.468-21.25 8.732-29.76C17.57 15.894 22.085 0 22.085 0l1.786.583c-.314 1.063-.124 2.044-.383 2.933-2.05 7.047-3.463 9.305-6.646 20.717-3.692 13.234-4.917 20.573-7.153 29.769H6.621V54Z" fill="#E5E5E5"/><path d="M23.874.583s.14 9.737.992 18.613c.87 9.056 1.766 14.269 1.766 14.269l-2.216.018s-1.178-8.562-1.717-14.277c-.532-5.642-.723-12.442-1.17-16.369L23.872.583h.002Z" fill="#E5E5E5"/><path d="M37.489 42.971c4.814-1.981 11.446-7.745 11.446-16.392 0-11.71-9.404-19.68-21.806-19.68-5.93 0-11.404 2.052-14.852 4.773 2.768-1.089 5.532-1.31 8.637-1.31 10.508-.055 22.596 5.984 22.596 19.318 0 4.842-2.464 9.536-6.023 13.29m-.26.038C20.311 47.915 6.475 38.895 6.475 25.95c0-3.79.549-9.494 5.576-13.935C4.54 14.778.431 20.807.487 28.875c.112 12.835 12.088 19.44 23.048 19.44 6.529 0 11.732-2.455 13.751-5.084" fill="#E5E5E5"/><path d="M21.332 54.002h7.258c-.715-10.83-.715-19.072-.715-28.11 0-6.868-.164-12.153.164-17.807h-6.213c.33 5.443.164 10.992.164 17.807 0 9.036-.164 17.438-.66 28.11h.002Z" fill="#E5E5E5"/></svg>