<svg width="76" height="63" fill="none" xmlns="http://www.w3.org/2000/svg"><path d="M4.071 55.12c0 .194.065.453.259.517.129.065.258.065.323.065h.064s-.064.065-.129.065h-.84c-.13 0-.13 0-.13-.065 0 0 .065 0 .065-.065v-.194l-.258-2.455-1.163 2.455c-.13.194-.13.259-.13.259-.064 0-.064-.065-.129-.194-.129-.258-.517-1.034-.581-1.099-.065-.064-.582-1.227-.647-1.356L.582 55.25v.258c0 .065.064.13.129.13h.258c0 .064 0 .064-.064.064h-.84c-.065 0-.065 0-.065-.065h.194c.13 0 .194-.194.194-.387l.323-3.102c0-.065 0-.065.064-.065.065 0 .065 0 .065.065l1.422 2.972 1.357-2.972c0-.065.064-.065.064-.065.065 0 .065.065.065.13l.323 2.907Zm1.422.582c0 .13.064.194.129.065l.065-.065.387-.517c.582-.776 1.228-1.486 1.81-2.197.064-.065.064 0 .064.065v2.39c0 .13-.064.259-.129.259h-.194s0 .065.065.065h1.034c.064 0 .064 0 .064-.065H8.53c-.13 0-.194-.13-.194-.259v-3.166c0-.13-.065-.194-.13-.065-.969 1.228-1.615 2.004-2.26 2.78H5.88v-2.456c0-.194.065-.259.194-.259h.194s0-.065-.064-.065h-.97c-.064 0-.064 0-.064.065h.194c.129.065.193.13.193.258v1.034l-.064 2.133Zm7.366-2.197V52.47c0-.194.065-.259.194-.259h.194s0-.064-.065-.064h-.969c-.064 0-.064 0-.064.064h.194c.129.065.193.13.193.259v1.163h-2.003v-1.227c0-.194.065-.258.194-.258h.194s0-.065-.065-.065h-.969c-.065 0-.065 0-.065.065h.195c.128.064.193.129.193.258v2.908c0 .13-.065.259-.13.259h-.193s0 .064.065.064h1.033c.065 0 .065 0 .065-.064h-.258c-.13 0-.194-.13-.194-.259v-1.486H12.6v1.486c0 .13-.065.259-.13.259h-.193s0 .064.064.064h1.034c.065 0 .065 0 .065-.064h-.259c-.129 0-.193-.13-.193-.259V54.28l-.13-.775Zm1.68 2.197c0 .13.065.194.13.065l.064-.065.388-.517c.582-.776 1.228-1.486 1.81-2.197.064-.065.064 0 .064.065v2.39c0 .13-.065.259-.13.259h-.193s0 .065.065.065h1.034c.064 0 .064 0 .064-.065h-.258c-.13 0-.194-.13-.194-.259v-3.166c0-.13-.065-.194-.13-.065-.969 1.228-1.615 2.004-2.261 2.78h-.065v-2.456c0-.194.065-.259.194-.259h.194s0-.065-.065-.065h-.969c-.065 0-.065 0-.065.065h.195c.129.065.193.13.193.258v1.034l-.064 2.133Zm3.813-1.81c0 1.1.711 1.874 2.133 1.874.323 0 .646-.064.84-.129l.129-.129c.064-.13.13-.582.13-.582 0-.064 0-.064-.066-.064 0 0-.064 0-.064.064 0 .065-.065.324-.194.388-.194.194-.452.259-.84.259-1.034 0-1.68-.84-1.68-1.745 0-.84.323-1.551 1.486-1.551.582 0 1.163.194 1.163.776 0 .064 0 .129.065.129.064 0 .064-.065.064-.323 0-.259.065-.517.065-.582 0 0 0-.065-.064-.065-.194 0-.582-.129-1.164-.129-1.55 0-2.003 1.034-2.003 1.81Zm5.493-1.55h.581c.453 0 .582.129.582.258v.065c0 .064 0 .064.065.064 0 0 .064 0 .064-.064v-.582c-.064 0-.194.065-.452.065h-2.133c-.129 0-.193-.065-.193-.065l-.065.065c0 .064-.13.452-.13.517v.064s.065 0 .065-.064c0-.065 0-.065.065-.13.065-.129.194-.129.452-.129h.711v3.037c0 .13-.065.259-.13.259h-.193s0 .065.065.065h1.034c.064 0 .064 0 .064-.065h-.258c-.13 0-.194-.13-.194-.259v-3.101Zm2.65.064c0-.064 0-.064 0 0 .128-.064.516 0 .58 0 .26 0 .389.065.389.13 0 .064.064.129.064.193 0 .065 0 .065.065.065 0 0 .064 0 .064-.065v-.323c0-.129.065-.194.065-.194v-.064h-1.809c-.065 0-.065 0-.065.064h.194c.13.065.194.13.194.194v1.939c0 .581 0 .97-.065 1.098 0 .13-.064.194-.13.194h-.193s0 .065.065.065h1.615c.194 0 .194 0 .259-.13 0-.129.064-.387.064-.452v-.064s-.064 0-.064.064c-.065.194-.065.259-.194.323-.13.065-.323.065-.453.065-.452 0-.517-.065-.517-.388v-1.227s0-.065.065-.065h.646c.194 0 .259.13.259.194v.129s0 .065.064.065l.065-.065c0-.259.065-.517.065-.582v-.064s-.065 0-.065.064c-.065.065-.13.065-.194.065h-.775v-.065l-.259-1.163Zm2.455 1.939v1.034c0 .129-.065.258-.13.258h-.193s0 .065.064.065h1.034c.065 0 .065 0 .065-.065h-.259c-.129 0-.193-.129-.193-.258v-2.973c0-.064 0-.064.064-.064h.194c.13 0 .388 0 .646.258.259.259.259.582.259.711 0 .452-.388.775-.84.775-.13 0-.13 0-.13.065 0 0 0 .065.065.065h.13c.646 0 1.163-.453 1.163-1.099a.82.82 0 0 0-.259-.581c-.065-.065-.258-.259-.905-.259h-1.098c-.065 0-.065 0-.065.065h.194c.13.064.194.129.194.258v1.744Zm2.52-.453c0 1.1.71 1.874 2.133 1.874.323 0 .646-.064.84-.129l.129-.129c.064-.13.129-.582.129-.582 0-.064 0-.064-.065-.064 0 0-.064 0-.064.064 0 .065-.065.324-.194.388-.194.194-.452.259-.776.259-1.033 0-1.68-.84-1.68-1.745 0-.84.323-1.551 1.487-1.551.581 0 1.163.194 1.163.776 0 .064 0 .129.064.129.065 0 .065-.065.065-.323 0-.259.065-.517.065-.582 0 0 0-.065-.065-.065-.194 0-.581-.129-1.163-.129-1.616 0-2.068 1.034-2.068 1.81Zm5.299-1.55h.581c.453 0 .582.129.582.258v.065c0 .064 0 .064.065.064 0 0 .064 0 .064-.064v-.582c-.064 0-.194.065-.452.065h-2.132c-.13 0-.194-.065-.194-.065l-.065.065c0 .064-.13.452-.13.517v.064s.065 0 .065-.064c0-.065 0-.065.065-.13.065-.129.194-.129.452-.129h.711v3.037c0 .13-.064.259-.13.259h-.193s0 .065.065.065h1.034c.064 0 .064 0 .064-.065h-.258c-.13 0-.194-.13-.194-.259v-3.101Zm4.265 2.326c0 .517-.388 1.034-1.228 1.034h-1.098c-.065 0-.065 0-.065-.065h.194c.064 0 .129-.064.129-.194 0-.129.065-.517.065-1.098v-1.939c0-.129-.065-.194-.194-.194h-.194s0-.064.065-.064h1.033c.776 0 .97.452.97.71 0 .388-.194.647-.453.84.323.13.776.453.776.97Zm-1.616-1.034c.065.065.13.065.323.065.259 0 .324 0 .453-.13a.587.587 0 0 0 .194-.452c0-.388-.194-.84-.647-.84h-.258c-.065 0-.065 0-.065.065v1.292Zm1.228 1.292c0-.258-.065-.71-.452-.969-.194-.13-.323-.13-.517-.13-.259 0-.259 0-.259.066v1.163c0 .323 0 .452.194.517H40c.258 0 .646-.13.646-.647Zm4.653-1.098c0 1.034-.776 1.938-1.874 1.938-1.293 0-1.81-1.033-1.81-1.873 0-.776.582-1.81 1.874-1.81.97 0 1.81.646 1.81 1.745Zm-.453.13c0-1.1-.71-1.746-1.421-1.746-.776 0-1.357.517-1.357 1.551 0 1.099.646 1.81 1.486 1.81.388 0 1.292-.194 1.292-1.616Zm3.102.387v1.034c0 .129-.064.258-.13.258h-.193s0 .065.065.065h.969c.065 0 .065 0 .065-.065h-.259c-.13 0-.194-.129-.194-.258-.064-.259 0-.517 0-1.034v-.453c.259.259 1.228 1.358 1.422 1.551.194.13.323.259.582.259h.581c.065 0 .13 0 .13-.065h-.065c-.065 0-.194 0-.323-.064-.194-.065-.323-.194-.711-.517-.194-.194-1.163-1.163-1.293-1.357l1.034-1.034c.194-.194.323-.323.517-.388.065-.065.194-.065.259-.065.064 0 .064 0 .064-.064 0 0 0-.065-.064-.065h-.776c-.064 0-.064 0-.064.065l.064.064c.065 0 .065.065.065.13 0 .064-.13.194-.258.323-.194.194-1.035 1.034-1.1 1.163v-1.293c0-.193.066-.258.195-.258h.194s0-.065-.065-.065h-.969c-.065 0-.065 0-.065.065h.194c.13.065.194.13.194.258v1.034l-.065.776Zm4.911.97c-.129.322-.258.58-.452.58s-.323-.193-.323-.452c0-.064 0-.064-.065-.064l-.064.064c0 .13-.065.453 0 .582 0 .065 0 .065.064.13.065.064.259.064.323.064.259 0 .453-.259.647-.646l1.163-2.844c.129-.323.194-.387.258-.452.065-.065.194-.065.259-.065.064 0 .064 0 .064-.064 0 0 0-.065-.064-.065h-.84c-.065 0-.13 0-.13.065h.259c.065 0 .065.064.065.129l-.065.194a72.96 72.96 0 0 1-.905 2.39l-1.034-2.26c-.064-.13-.129-.324-.129-.389 0-.064 0-.064.065-.064h.194c.064 0 .064 0 .064-.065 0 0-.065-.064-.13-.064H51.05c-.065 0-.13 0-.13.064 0 0 0 .065.065.065h.194c.194.064.194.129.323.387l1.357 2.78Zm2.52-1.229.388-1.292c0-.065.065-.065.065 0l.452 1.292.065.259.452 1.163v.13s-.065 0-.065.064c0 0 .065 0 .13.065h.71c.065 0 .065 0 .065-.065h-.258c-.13 0-.259-.13-.388-.517-.258-.71-1.034-2.65-1.098-2.843-.065-.13-.065-.194-.13-.194 0 0-.064 0-.129.194l-1.099 2.908c-.064.258-.193.387-.387.452h-.194s0 .065.065.065h.904c.065 0 .065 0 .065-.065h-.13c-.064 0-.193-.065-.193-.13 0-.064 0-.193.064-.322l.647-1.164Zm5.105.582c0 .517-.387 1.034-1.227 1.034h-1.099c-.064 0-.064 0-.064-.065h.194c.064 0 .129-.129.129-.258V52.47c0-.13-.065-.259-.194-.259h-.194s0-.064.065-.064h.904c.065 0 .065 0 .065.064h-.194c-.13 0-.194.13-.194.259v1.098c0 .065 0 .065.065.065h.258c.646.065 1.486.194 1.486 1.034Zm-.452.258c0-.258-.064-.71-.452-.969-.259-.194-.453-.13-.711-.13-.065 0-.065.066-.065.066v1.292c0 .258 0 .323.13.388h.452c.258 0 .646-.13.646-.647Zm2.327-2.584h.581c.452 0 .582.129.582.258v.065c0 .064 0 .064.064.064 0 0 .065 0 .065-.064v-.582c-.065 0-.194.065-.452.065h-2.262c-.13 0-.194-.065-.194-.065l-.065.065c0 .064-.129.452-.129.517v.064s.065 0 .065-.064c0-.065 0-.065.064-.13.065-.129.194-.129.453-.129h.71v3.037c0 .13-.064.259-.129.259h-.194s0 .065.065.065h1.034c.065 0 .065 0 .065-.065h-.259c-.13 0-.194-.13-.194-.259V54.41l.13-2.068Zm3.489 2.972c-.13.323-.258.582-.452.582s-.323-.194-.323-.453c0-.064 0-.064-.065-.064l-.065.064c0 .13-.064.453 0 .582 0 .065 0 .065.065.13.065.064.258.064.323.064.258 0 .452-.259.646-.646l1.163-2.844c.13-.323.194-.387.259-.452.064-.065.194-.065.258-.065.065 0 .065 0 .065-.064 0 0 0-.065-.065-.065h-.84c-.064 0-.129 0-.129.065h.259c.064 0 .064.064.064.129l-.064.194a73.45 73.45 0 0 1-.905 2.39l-1.034-2.26c-.065-.13-.13-.324-.13-.389 0-.064 0-.064.065-.064h.194c.065 0 .065 0 .065-.065 0 0-.065-.064-.13-.064H64.04c-.065 0-.13 0-.13.064 0 0 0 .065.065.065h.194c.194.064.194.129.323.387l1.357 2.78Zm2.585-.97v1.035c0 .129-.065.258-.13.258h-.193s0 .065.064.065h1.034c.065 0 .065 0 .065-.065h-.259c-.129 0-.194-.129-.194-.258v-2.973c0-.064 0-.064.065-.064h.194c.13 0 .388 0 .646.258.259.259.259.582.259.711 0 .452-.388.775-.84.775-.13 0-.13 0-.13.065 0 0 0 .065.065.065h.13c.645 0 1.162-.453 1.162-1.099a.819.819 0 0 0-.258-.581c-.065-.065-.259-.259-.905-.259H68.11c-.065 0-.065 0-.065.065h.194c.13.064.194.129.194.258v1.744Zm5.04.324c0 .517-.388 1.034-1.228 1.034h-1.098c-.065 0-.065 0-.065-.065h.195c.064 0 .128-.129.128-.258V52.47c0-.13-.064-.259-.194-.259h-.193s0-.064.064-.064h.905c.065 0 .065 0 .065.064h-.195c-.129 0-.193.13-.193.259v1.098c0 .065 0 .065.064.065h.389c.84.065 1.356.388 1.356 1.034Zm-.388.258c0-.452-.258-1.034-.969-1.034-.258 0-.258.065-.258.194v1.164c0 .258 0 .323.129.387.13.065.323.065.388.065.258-.13.71-.259.71-.776Zm1.551-1.421V52.47c0-.194.065-.259.194-.259h.194s0-.064-.065-.064h-.904c-.065 0-.065 0-.065.064h.194c.13 0 .13.13.13.259v2.909c0 .129-.065.258-.13.258h-.194s0 .065.065.065h1.034c.064 0 .064 0 .064-.065h-.258c-.13 0-.194-.129-.194-.258v-1.034l-.065-.84ZM.452 60.355v1.034c0 .129-.064.258-.129.258H.13s0 .065.065.065h1.034c.064 0 .064 0 .064-.065h-.258c-.13 0-.194-.13-.194-.258v-2.973c0-.065 0-.065.065-.065H1.1c.129 0 .387 0 .646.259.258.258.258.581.258.71 0 .453-.388.776-.84.776-.13 0-.13 0-.13.065 0 0 0 .064.066.064h.129c.646 0 1.163-.452 1.163-1.098a.819.819 0 0 0-.259-.582c-.064-.194-.323-.388-.904-.388h-1.1c-.064 0-.064 0-.064.065h.194c.129.065.193.13.193.259v1.873Zm6.204-.517c0 1.033-.776 1.938-1.874 1.938-1.293 0-1.81-1.034-1.81-1.874 0-.775.582-1.81 1.875-1.81 1.033 0 1.809.647 1.809 1.746Zm-.452.129c0-1.099-.711-1.745-1.422-1.745-.776 0-1.357.517-1.357 1.551 0 1.098.646 1.81 1.486 1.81.388 0 1.293-.26 1.293-1.616Zm1.163-.13c0 1.1.71 1.875 2.132 1.875.323 0 .646-.065.84-.13l.13-.129c.064-.13.129-.582.129-.582 0-.064 0-.064-.065-.064 0 0-.064 0-.064.064 0 .065-.065.324-.194.388-.194.194-.453.259-.84.259-1.034 0-1.68-.84-1.68-1.745 0-.84.323-1.55 1.486-1.55.581 0 1.163.193 1.163.775 0 .064 0 .129.065.129.064 0 .064-.065.064-.323 0-.259.065-.517.065-.582 0 0 0-.065-.065-.065-.194 0-.581-.129-1.163-.129-1.486.065-2.003 1.099-2.003 1.81Zm3.812 0c0 1.1.711 1.875 2.133 1.875.323 0 .646-.065.84-.13l.13-.129c.064-.13.128-.582.128-.582 0-.064 0-.064-.064-.064 0 0-.065 0-.065.064 0 .065-.065.324-.194.388-.194.194-.452.259-.84.259-1.034 0-1.68-.84-1.68-1.745 0-.84.323-1.55 1.486-1.55.582 0 1.163.193 1.163.775 0 .064 0 .129.065.129s.065-.065.065-.323c0-.259.064-.517.064-.582 0 0 0-.065-.064-.065-.194 0-.582-.129-1.164-.129-1.55.065-2.003 1.099-2.003 1.81Zm4.33 1.81c0 .13.064.194.13.065l.064-.065.387-.517c.582-.775 1.228-1.486 1.81-2.197.064-.065.064 0 .064.065v2.391c0 .129-.064.258-.129.258h-.194s0 .065.065.065h1.034c.065 0 .065 0 .065-.065h-.259c-.13 0-.194-.13-.194-.258v-3.167c0-.13-.064-.194-.13-.065-.968 1.228-1.615 2.068-2.26 2.844h-.065v-2.456c0-.194.064-.258.193-.258h.194s0-.065-.064-.065h-.97c-.064 0-.064 0-.064.065h.194c.129.064.193.129.193.258v1.034l-.064 2.068Zm4.523 0c0 .13.065.194.13.065l.064-.065c.13-.194.259-.323.388-.517.581-.775 1.228-1.486 1.81-2.197.064-.065.064 0 .064.065v2.391c0 .129-.065.258-.13.258h-.193s0 .065.064.065h1.034c.065 0 .065 0 .065-.065h-.259c-.129 0-.193-.13-.193-.258v-3.167c0-.13-.065-.194-.13-.065-.969 1.228-1.615 2.068-2.261 2.844h-.065v-2.456c0-.194.065-.258.194-.258h.194s0-.065-.065-.065h-.969c-.065 0-.065 0-.065.065h.194c.13.064.194.129.194.258v1.034l-.065 2.068Zm4.007-1.81c0 1.1.71 1.875 2.132 1.875.323 0 .646-.065.84-.13l.13-.129c.064-.13.129-.582.129-.582 0-.064 0-.064-.065-.064 0 0-.064 0-.064.064 0 .065-.065.324-.194.388-.194.194-.453.259-.84.259-1.034 0-1.68-.84-1.68-1.745 0-.84.323-1.55 1.486-1.55.581 0 1.163.193 1.163.775 0 .064 0 .129.064.129.065 0 .065-.065.065-.323 0-.259.065-.517.065-.582 0 0 0-.065-.065-.065-.194 0-.581-.129-1.163-.129-1.55.065-2.003 1.099-2.003 1.81Zm4.33.518v1.034c0 .129-.065.258-.13.258h-.194s0 .065.065.065h.969c.065 0 .065 0 .065-.065h-.259c-.129 0-.194-.13-.194-.258v-1.487c.194.259 1.228 1.357 1.422 1.551.194.13.323.259.582.259h.581c.065 0 .13 0 .13-.065h-.065c-.065 0-.194 0-.323-.065-.259-.064-.323-.194-.711-.517-.194-.194-1.163-1.163-1.292-1.357l1.033-1.034c.194-.193.324-.323.517-.387.065-.065.194-.065.259-.065.064 0 .064 0 .064-.065 0 0 0-.064-.064-.064h-.776c-.064 0-.064 0-.064.064l.064.065c.065 0 .065.065.065.13 0 .064-.13.193-.258.322-.194.194-1.034 1.034-1.099 1.164v-1.293c0-.194.065-.258.194-.258h.194s0-.065-.065-.065h-.969c-.065 0-.065 0-.065.065h.194c.13.064.194.129.194.258v1.034l-.065.776Zm6.655-.517c0 1.033-.775 1.938-1.874 1.938-1.292 0-1.81-1.034-1.81-1.874 0-.775.582-1.81 1.875-1.81 1.034 0 1.81.647 1.81 1.746Zm-.452.129c0-1.099-.711-1.745-1.422-1.745-.775 0-1.357.517-1.357 1.551 0 1.098.646 1.81 1.486 1.81.453 0 1.293-.26 1.293-1.616Zm1.486 1.68c0 .13.065.194.13.065l.064-.065c.13-.194.258-.323.388-.517.581-.775 1.227-1.486 1.809-2.197.065-.065.065 0 .065.065v2.391c0 .129-.065.258-.13.258h-.194s0 .065.065.065h1.034c.065 0 .065 0 .065-.065h-.259c-.129 0-.194-.13-.194-.258v-3.167c0-.13-.064-.194-.129-.065-.97 1.228-1.615 2.068-2.262 2.844h-.064v-2.456c0-.194.064-.258.194-.258h.194s0-.065-.065-.065H35.8c-.065 0-.065 0-.065.065h.194c.13.064.194.129.194.258v3.102h-.065Zm7.69-.323c0 .194 0 .388.194.388h.258s0 .064-.064.064h-1.034c-.065 0-.065 0-.065-.064h.194c.13-.065.13-.259.13-.388-1.1-.065-1.616-.776-1.616-1.422 0-.581.517-1.357 1.615-1.486a.494.494 0 0 0-.13-.323h-.193s0-.065.065-.065h.904c.065 0 .065 0 .065.065h-.194c-.13 0-.13.194-.194.323.905.065 1.616.582 1.616 1.422 0 .775-.582 1.357-1.551 1.486Zm-.453-2.585v-.13c0-.064 0-.064-.064 0-.646.065-1.163.518-1.163 1.293 0 .776.517 1.228 1.163 1.357 0 0 .064 0 .064-.064v-2.456Zm.453 2.456c.388 0 1.163-.259 1.163-1.293 0-.71-.452-1.228-1.034-1.357h-.065c-.064 0-.064 0-.064.13v1.613c-.065.389-.065.647 0 .906 0 0-.065 0 0 0Zm3.102-2.844c0-.064 0 0 0 0 .129-.064.517 0 .581 0 .259 0 .388.065.388.13 0 .064.065.129.065.193 0 .065 0 .065.064.065.065 0 .065 0 .065-.065v-.323c0-.129.064-.194.064-.194v-.064h-1.809c-.065 0-.065 0-.065.064h.195c.128.065.193.13.193.194v1.939c0 .581 0 .97-.065 1.099 0 .129-.064.193-.129.193h-.194s0 .065.065.065h1.616c.193 0 .193 0 .258-.13 0-.129.065-.387.065-.452v-.064s-.065 0-.065.064c-.065.194-.065.259-.194.324-.13.064-.323.064-.452.064-.453 0-.517-.065-.517-.388v-1.227s0-.065.065-.065h.646c.194 0 .258.13.258.194v.13s0 .064.065.064l.064-.065c0-.258.065-.517.065-.581v-.065s-.065 0-.065.064c-.064.065-.129.065-.193.065h-.776v-1.228h-.258Zm5.75 3.102c0 .13-.128.517-.128.517 0 .065 0 .065-.065.065 0 0-.065 0-.065-.065v-.065c0-.129 0-.323-.387-.323H49.11c-.323 0-.323.065-.387.194v.259l-.065-.065c0-.065-.065-.517-.13-.517v-.065c.065 0 .13.065.26.065.258 0 .322-.13.387-.323l1.163-2.908c.065-.13.065-.194.13-.194 0 0 .064 0 .129.194.064.194.84 2.133 1.163 2.843.064.13.129.194.194.324a.417.417 0 0 0 .323.129c.194-.065.258-.065.323-.065Zm-1.033 0-1.034-2.65c0-.064-.065-.064-.13 0l-.84 2.327c-.064.13-.064.258-.064.323.582.065 1.292.065 2.068 0Zm2.262-3.102c0-.064 0 0 0 0 .129-.064.517 0 .581 0 .259 0 .388.065.453.13 0 .064.064.129.064.193 0 .065 0 .065.065.065 0 0 .064 0 .064-.065v-.323c0-.129.065-.194.065-.194v-.064h-1.809c-.065 0-.065 0-.065.064h.194c.13.065.194.13.194.194v1.939c0 .581 0 .97-.065 1.099 0 .129-.065.193-.13.193h-.193s0 .065.065.065h1.615c.194 0 .194 0 .259-.13 0-.129.064-.387.064-.452v-.064s-.064 0-.064.064c-.065.194-.065.259-.194.324-.13.064-.323.064-.453.064-.452 0-.517-.065-.517-.388v-1.227s0-.065.065-.065h.646c.194 0 .259.13.259.194v.13s0 .064.064.064l.065-.065c0-.258.065-.517.065-.581v-.065s-.065 0-.065.064c-.065.065-.13.065-.194.065h-.775v-.065l-.323-1.163Zm2.778 2.004v1.034c0 .129-.064.258-.129.258h-.194s0 .065.065.065h1.034c.064 0 .064 0 .064-.065h-.258c-.13 0-.194-.13-.194-.258v-2.973c0-.065 0-.065.065-.065h.194c.129 0 .387 0 .646.259.258.258.258.581.258.71 0 .453-.388.776-.84.776-.13 0-.13 0-.13.065 0 0 0 .064.066.064h.129c.646 0 1.163-.452 1.163-1.098a.819.819 0 0 0-.259-.582c-.064-.064-.258-.258-.904-.258h-1.099c-.064-.13-.129-.13-.129-.13h.194c.13.065.194.13.194.259v1.034l.064.905Zm5.493 1.292-.065.065h-.71c-.065 0-.13 0-.13-.065 0 0 0-.065.065-.065 0 0 .065 0 .065-.064v-.065l-.453-1.163h-1.098s-.065 0-.065.065l-.323.84c-.065.129-.065.258-.065.323 0 .064.13.129.194.129h.129s0 .065-.064.065h-.905c-.064 0-.064 0-.064-.065h.194c.193 0 .322-.194.387-.452l1.099-2.908c.064-.13.064-.194.129-.194 0 0 .064 0 .13.194.064.194.84 2.132 1.098 2.843.194.388.323.517.387.517h.065Zm-1.422-1.55-.452-1.293c0-.065 0-.065-.065-.065l-.064.065-.388 1.292v.065l.97-.065c0 .065 0 0 0 0Zm4.524 1.227c0 .065 0 .13-.065.194a9.72 9.72 0 0 1-1.938 0c0-.065-.065-.13-.065-.194v-2.908c0-.194.065-.258.194-.258h.194s0-.065-.065-.065h-.969c-.065 0-.065 0-.065.064h.194c.13.065.194.13.194.259v2.908c0 .13-.065.258-.13.258h-.193s0 .065.064.065h3.102c.388 0 .388.13.388.323v.065c0 .064 0 .064.064.064 0 0 .065 0 .065-.064a2 2 0 0 1 .13-.517v-.065s-.13 0-.26.065c-.064 0-.322.064-.322-.323v-2.779c0-.194.064-.258.194-.258h.193s0-.065-.064-.065h-.969c-.065 0-.065 0-.065.064h.194c.129.065.194.13.194.259v1.874c-.194.517-.194.84-.194 1.034Zm2.068.323c0 .13.064.194.129.065l.064-.065.388-.517c.582-.775 1.228-1.486 1.81-2.197.064-.065.064 0 .064.065v2.391c0 .129-.064.258-.129.258h-.194s0 .065.065.065H70.5c.064 0 .064 0 .064-.065h-.258c-.13 0-.194-.13-.194-.258v-3.167c0-.13-.065-.194-.13-.065-.969 1.228-1.615 2.068-2.261 2.844h-.065v-2.456c0-.194.065-.258.194-.258h.194s0-.065-.064-.065h-.97c-.064 0-.064 0-.064.065h.194c.129.064.193.129.193.258v1.034l-.064 2.068Zm4.588 0c0 .13.064.194.129.065l.065-.065.387-.517c.582-.775 1.228-1.486 1.81-2.197.064-.065.064 0 .064.065v2.391c0 .129-.064.258-.129.258h-.194s0 .065.065.065h1.034c.064 0 .064 0 .064-.065h-.258c-.13 0-.194-.13-.194-.258v-3.167c0-.13-.065-.194-.13-.065-.969 1.228-1.615 2.068-2.326 2.844h-.064v-2.456c0-.194.064-.258.194-.258h.193s0-.065-.064-.065h-.969c-.065 0-.065 0-.065.065h.194c.129.064.194.129.194.258v3.102Zm-49.564-4.33c.065-.064.065-.129 0-.129s-.065 0-.13.065c-.193.258-.387.258-.452.258-.064 0-.323 0-.323-.323 0-.13 0-.194-.064-.194-.13 0-.259.194-.259.323 0 .194.194.388.582.388.258 0 .517-.194.646-.388Zm15.961 0c.065-.064.065-.129 0-.129s-.065 0-.13.065c-.193.258-.387.258-.516.258-.065 0-.323 0-.323-.323 0-.13 0-.194-.065-.194-.129 0-.258.194-.258.323 0 .194.194.388.581.388.259 0 .517-.194.711-.388ZM27.27 26.17l.389-.84-.194-.13-.582.712.065.323.323-.065Zm2.069.259v-.84l-.323-.065-.194.84.194.258.323-.193Zm16.542.194.194-.259-.258-.84-.323.065v.84l.387.194Zm2.068-.388.065-.323-.582-.711-.258.13.388.84.387.064Zm1.293-1.357-.13-.323-.904-.388-.13.258.776.517.388-.064ZM25.59 20.87l.064.323.905.323.13-.258-.776-.517-.323.13Zm.84 1.874-.97-.129-.258.194.194.258.97-.064.064-.259Zm-.582 1.81-.13.323.324.129.776-.517-.13-.258-.84.323Zm23.457-3.296.065-.323-.323-.13-.84.518.129.258.97-.323Zm10.404.388s-.517-.259-.904-.323c-.453-.065-.776-.065-1.1-.065a2.39 2.39 0 0 0 .712-.323c1.163-.71 1.292-2.068 1.292-2.068s-.646-.13-1.098-.13c-.647 0-1.164.066-1.293.13.517-.258.711-.388 1.099-.775.904-.905.775-2.197.775-2.197s-.323-.13-.84-.065c-.452.065-.581.065-.775.194.775-.905.904-1.422.969-2.003.13-.905-.194-1.551-.258-1.616 0 0-.388.065-.905.517-.582.452-1.422 1.228-1.422 1.228s.194-.259.452-.711c1.034-2.068.905-3.748.647-4.2-.323-.517-.84-.582-1.099-.194-.194.323-.775 1.55-1.228 2.455a29.71 29.71 0 0 1-2.132 3.296c-.194-.452-.452-.13-.452-.13s-.323.582-.711 1.164c-.323.582-.776 1.034-1.034 1.228-.323-.388-.711-.582-.711-.582l-.13.13s-2.455 2.584-3.166 3.553c-.775.97-.194 1.487.388 2.262.517.776.323 1.745-.84 2.197-.97.388-1.68.065-1.939-.452.711-.323 1.422-1.034 1.422-2.003 0-.194 0-.323-.065-.517-.258-1.099-1.098-1.745-2.067-1.745-.323 0-.711.065-1.034.258-.194.13-.323.194-.453.324 0 0-.064 0-.064.064-.453-.84-.453-1.486.129-2.585.582-1.163 1.615-1.68 1.615-1.68l.259.194s0-.064.517-.323c.517-.258 1.034-.194 1.422.323.323.388.323.97.323.97s.323-.324.452-.647c.13-.323 0-.646 0-.646s.388.13.84.323c.388.194 1.163.453 1.81-.13.646-.58.516-1.356.516-1.356s-.323.582-1.098.71c-.517.13-1.163-.193-1.616-.387-.452-.194-1.034-.258-1.034-.258s.517-.453 1.422-.194c.646.194.776.452.776.452s.323-.258.581-.775c.259-.517.065-1.034-.323-1.422-.388-.388-1.163-.582-1.163-.582s.13-.194-.13-.323a6.822 6.822 0 0 1-.452-.129s.194-.646-.452-.905c-1.034-.452-2.65.388-4.459.646-1.228.194-1.68-.193-1.68-.193s.065.258.323.517c.452.452.776.646.776.646s-.324.064-.647 0a48.5 48.5 0 0 0-.84-.194s.194.258.453.517c.323.258.646.388.646.388s-.646.323-1.228.517c-.517.194-1.486.194-1.486.194s.323.323.71.452c.453.194.647.194.647.194s-.388.452-.776 1.292a16.28 16.28 0 0 0-.969 2.197c-.258-.581-.71-1.615-.97-2.197-.387-.775-.775-1.292-.775-1.292s.194 0 .646-.194c.453-.194.711-.452.711-.452s-.904 0-1.486-.194a24.376 24.376 0 0 1-1.228-.517s.323-.13.646-.388a1.75 1.75 0 0 0 .453-.517s-.517.13-.84.194c-.323.064-.646 0-.646 0s.323-.13.775-.646a1.24 1.24 0 0 0 .323-.517s-.517.387-1.68.194c-1.81-.259-3.425-1.099-4.459-.647-.646.259-.452.905-.452.905s-.259.065-.453.13c-.258.064-.129.322-.129.322s-.775.194-1.163.582c-.388.388-.517.84-.323 1.422.194.517.582.775.582.775s.064-.258.775-.452c.905-.259 1.422.194 1.422.194s-.582.064-1.034.258c-.453.194-1.034.517-1.551.388-.776-.13-1.099-.711-1.099-.711s-.129.775.517 1.357 1.357.323 1.81.13c.452-.195.84-.324.84-.324s-.13.259 0 .646c.129.323.452.646.452.646s0-.517.323-.969c.388-.452.905-.517 1.422-.323.517.259.517.323.517.323l.258-.194s1.034.517 1.616 1.68c.581 1.099.646 1.745.129 2.585l-.065-.064c-.129-.13-.323-.194-.581-.324-.323-.129-.711-.258-1.034-.258-.97 0-1.874.646-2.068 1.745-.065.194-.065.323-.065.517 0 1.034.711 1.744 1.422 2.003-.258.452-.97.84-1.939.452-1.163-.452-1.357-1.357-.84-2.197.517-.775 1.099-1.292.388-2.262-.775-.969-3.166-3.554-3.166-3.554l-.13-.129s-.323.13-.71.582c-.259-.259-.711-.646-1.034-1.228a83.78 83.78 0 0 0-.711-1.163s-.194-.323-.453.129c-.387-.517-1.357-1.874-2.132-3.296-.452-.904-1.034-2.132-1.228-2.455-.258-.388-.84-.388-1.098.194-.259.517-.388 2.132.646 4.2.258.517.452.71.452.71s-.84-.775-1.421-1.227c-.517-.388-.905-.517-.905-.517-.065.065-.388.71-.259 1.616.065.581.194 1.163.97 2.003-.194-.13-.388-.13-.776-.194-.517-.065-.84.065-.84.065s-.129 1.292.776 2.197c.387.323.581.517 1.098.775-.194-.064-.646-.064-1.292-.13-.388 0-1.099.066-1.099.066s.13 1.357 1.293 2.067c.194.13.452.259.71.323-.323 0-.646 0-1.098.065-.388.065-.905.323-.905.323s.453 1.228 1.68 1.68c.194.065.323.13.582.194-.13 0-.517.13-1.034.388-.323.194-.775.517-.775.517s.581 1.098 1.744 1.292c0 0 .13 0 .194.065-.194.13-.517.388-.84.646-.258.258-.581.776-.581.776s.969.969 2.326.84c-.13.129-.194.258-.323.452-.259.452-.388 1.099-.388 1.099s1.034.581 2.197.193c-.064.13-.129.259-.194.453-.129.387-.129 1.163-.129 1.163s1.228.387 2.326-.453c-.064.13-.129.388-.129.647-.064.387.065 1.163.065 1.163s1.357.13 2.326-.84l.065-.065v.323c0 .388.194 1.099.194 1.099s1.357-.065 2.132-1.163c.065-.13.13-.194.194-.324 0 .13.065.518.13.776.128.323.387.775.387.775s1.098-.323 1.55-1.486c.195-.517.26-1.098.26-1.68l.128.13s.388-.065.711-.453a7.304 7.304 0 0 0-.581 2.908c0 .258 0 .517.064.775.065.582.065.84.194 1.293 0 0-.194.387-.388.581-.064.065-.387.388-.323.84 0 .388.388.388.388.388s-.065.388.13.582c.129.194.322.258.452.323.064 0 .323.064.323.064s.064.453.194.582c.194.13.646.258.646.258.13.065.323.194.452.259.194.13.517.064.84-.13.194-.129.194-.387.194-.452.065.065.13.065.194.065.323.13.517.258.582.323.129.258.258.84.323 1.228 0 .194 0 .452.129.71 0 0 0 .065.065.065 0 0-.065 0-.13.065-.323.13-.71.258-1.098.581-.388.259-.84 1.034-1.486 1.164-.517.129-.905-.13-.97-.453-.064-.323-.064-.517-.064-.517s-.711.453-.776.97c-.065.646.517.969.517.969s-.97.905-.646 1.745c.258.71.452.969.452 1.227.065.259-.064.453-.064.453s.452.064.581-.582c.065-.388.194-.581.259-.71.064-.13.129-.194.129-.194s-.065.581.13 1.034c.128.452.645.904 1.356.969.646.064 1.228-.323 1.228-.323s.517.71 1.292.84c.776.129 1.293-.065 1.551-.13 0 0 .194.388.388.647.065.129.258.323.452.452l.259.13s.258-.26.452-.518.453-.84.453-.84.84.323 1.615.13c.775-.194 1.292-.711 1.292-.711s.453.517 1.164.452c.71-.065 1.227-.71 1.357-1.163.129-.453.064-1.034.064-1.034a.8.8 0 0 0 .194.13c.13.064.194.128.323.645.13.647.452.711.452.711s0-.323.13-.646c.129-.259.323-.517.452-1.099.259-1.098-.646-1.55-.646-1.55s.517-.324.517-.905c-.065-.776-.84-1.034-.84-1.034s.064.065 0 .388c-.065.323-.388.646-.97.517-.323-.065-.969-.84-1.357-1.099-.387-.258-.969-.517-1.163-.646 0 0-.064 0-.064-.065.129-.258.129-.517.129-.71.065-.388.13-.84.258-1.164.065-.194.324-.323.647-.387.064-.065.129-.065.194-.065 0 .065 0 .388.193.452.259.13.582.194.84.13.13-.065.323-.194.453-.259 0 0 .452-.13.646-.258.13-.13.194-.582.194-.582s.258-.065.323-.065c.064 0 .323-.129.452-.323.13-.194.13-.581.13-.581s.387-.065.387-.388c.065-.452-.258-.776-.323-.84a7.986 7.986 0 0 1-.388-.582c.13-.452.194-.71.194-1.292 0-.259.065-.517.065-.776 0-1.034-.194-2.003-.453-2.907.388.387.711.452.711.452l.13-.13c0 .582.064 1.228.258 1.68.388 1.1 1.55 1.487 1.55 1.487s.26-.452.389-.775c.064-.259.129-.647.129-.776.064.13.13.194.194.323.775 1.099 2.197 1.163 2.197 1.163s.194-.71.194-1.098v-.323l.064.064c.97.97 2.327.84 2.327.84s.129-.775.064-1.163c0-.258-.064-.452-.129-.646 1.099.775 2.326.452 2.326.452s0-.775-.129-1.163c-.065-.194-.13-.323-.194-.452 1.163.388 2.197-.194 2.197-.194s-.064-.646-.387-1.098c-.13-.194-.194-.324-.324-.453 1.358.13 2.327-.84 2.327-.84s-.259-.517-.582-.775c-.323-.323-.646-.517-.84-.646a.646.646 0 0 0 .194-.065c1.099-.194 1.745-1.293 1.745-1.293s-.388-.323-.776-.517c-.517-.258-.904-.387-1.034-.387.259-.065.388-.13.582-.194 1.228-.452 1.68-1.68 1.68-1.68Zm-1.55-2.52c.516 0 .84.064.904.064-.452.582-.97 1.034-2.391 1.422-1.874.581-2.973.452-3.36.517.97-.646 1.163-1.034 1.163-1.034s0-.065-.388-.194c.323-.065.97-.258 1.422-.388.323-.129.517-.194.84-.323.194 0 1.228-.064 1.81-.064Zm-10.792 8.142c.064.258.323.71.452.97 0 .128-.065.322-.194.516a3.958 3.958 0 0 1-.323.388s-.517-.065-.84-.646c-.194-.388-.194-.84-.194-1.099.13-.065.194-.194.323-.258.194-.194.259-.518.259-.518s.194.13.452.194c0 .13.065.324.065.453Zm.323-.259c.258.065.387.13.517.13l.258-.259c.13.13.259.323 1.034.84v.646c-.065.323-.13.517-.13.517s-.516-.129-.968-.517c-.517-.581-.582-1.098-.711-1.357Zm1.034-.388c0-.064.064-.064.064-.129.194-.387.194-.71.194-.71s.905.581 1.745.775c.065.13.13.323.13.582.064.387.064.517.064.517s-.517-.065-1.228-.324c-.646-.387-.775-.646-.97-.71Zm1.55-.775c-.129-.065-.452-.194-.581-.258a1.15 1.15 0 0 0 .646-.453s0-.129-.064-.194c.323.065.517.13 1.033.13h.13c.064.064.452.258.71.517.26.323.388.517.388.646a6.847 6.847 0 0 1-2.261-.388Zm1.035-1.357c-.647 0-.97-.064-1.293-.13l-.323-.322c.065-.065.323-.194.452-.323.453 0 1.487.064 2.327-.259.064 0 .064 0 .129-.064.13.064.258.129.452.193.388.194.582.388.646.517-.258.194-1.421.453-2.39.388Zm.258-1.357c-.452.065-.905.065-1.099 0 0 0 .065-.13.13-.323-.065-.13-.259-.323-.582-.582l-.065-.064c.324-.065 1.164-.13 1.94-.323.064 0 .322 0 .774.194.582.258.776.452.84.517-.193.129-.904.452-1.938.581Zm.323-1.874c-1.098.323-1.68.323-1.938.323.129-.13.258-.323.387-.646.388-.13 1.357-.517 2.068-1.034.13 0 .388 0 .71.065.518.064.776.194.906.323-.388.323-1.228.71-2.133.97Zm6.139-5.04c.517-.065.71 0 .776 0-.259.517-.97 1.292-2.52 2.197-1.487.775-2.327 1.098-2.715 1.228-.387-.065-.775-.065-.775-.065.323-.259.517-.582.71-.84.518-.194 2.327-.905 3.62-2.262l.064-.064c.13-.065.582-.13.84-.194Zm-5.364-1.164s.711-.84 1.422-1.938c.646-.97 1.422-2.714 2.003-3.813.259-.517.776-.323.776.453 0 1.098-.84 2.972-1.551 3.877-1.422 1.81-2.133 2.197-2.65 2.585-.064 0 .13-.517 0-1.164Zm2.392.194c.323-.323 1.615-1.292 2.39-2.003.324-.323.711-.452.711-.452.065.581-.258 1.421-.581 1.874-.453.71-1.228 1.486-1.745 1.81-1.68 1.162-1.81 1.227-2.068 1.356-.065 0-.84-.323-1.745 0 .065-.064.065-.194.065-.194s1.615-1.034 2.972-2.39Zm-3.748 1.164c.452-.582.646-1.034.71-1.164.194-.387.388-.323.388.065 0 .71-.388 1.486-.84 2.068-.452.517-.84.775-1.099.904.065-.129.194-.646-.064-1.033.194-.13.581-.388.904-.84Zm.387 1.809c.13-.065.388-.065.711-.13.517-.064.905 0 1.034.065-.323.259-1.099.97-1.939 1.422-.775.452-1.357.646-1.615.775-.388-.194-.776-.194-.776-.194l.582-.581c.452-.194 1.292-.517 2.003-1.357Zm-7.237 6.85c1.357.258 2.326-.453 2.714-1.034.323-.582.258-1.228-.323-2.068-.582-.84-.905-1.034.646-2.779 1.615-1.744 2.197-2.197 2.197-2.197s.582.194.517 1.099c-.065.581-.97 1.486-1.292 1.809a6.078 6.078 0 0 0-.517.582s.387 0 .904.064c.388.065.582.194.582.194s-.13.517-.323.71l-.517.518s.387.13.71.452c.26.259.388.453.388.453s-.194.452-.452.71c-.259.259-.71.453-.71.453s.387.258.645.581a.7.7 0 0 1 .194.453s-.258.194-.581.323c-.194.064-.323.064-.453.064h-.258s0 .453-.13.776c-.129.323-.452.517-.452.517s-.581-.065-.775-.194c-.259-.13-.582-.388-.582-.388s-.258.517-.387.646a1.108 1.108 0 0 1-.388.259l-.517-.259c-.13-.064-.388-.323-.388-.323l-.84.582s-.388-.13-.84-.97v-.064c-.388-.776-.582-1.292-.646-1.616.517.259 1.486.517 1.874.647Zm-1.163-4.718c1.163 0 2.068 1.357 1.421 2.52-.646 1.164-1.81 1.035-2.068.647-.258-.388-.193-.905.194-1.099.323-.258.84 0 .84 0v-.064s-.517-.776-1.227-.065c-.194.13-.259.323-.324.582H40.84c0-.194 0-.194.065-.323.194-1.293 1.227-2.198 2.39-2.198Zm-7.302.259c0-.259.193-.453.452-.453.258 0 .452.194.452.453a.484.484 0 0 1-.323.452v1.81h-.388V21c-.129 0-.194-.194-.194-.388Zm.775-.776a1.004 1.004 0 0 0-.646-.064.874.874 0 0 0-.582.581h-.194c-.194 0-.387.065-.646.259-.13.13-.258.388-.258.581 0 .259.129.517.323.711v.517h-.323c-.065-.258-.194-.775-.517-1.228.129-.193.646-.775.84-1.486.129-.452.258-.84.258-1.357.065.13.194.194.259.323.194.259.323.582.323.582l.13.323.128-.388s.13-.387.259-.904c.064-.194.064-.388.064-.517.13.129.259.323.388.581.194.259.323.646.323.776 0 .064.065.194.065.323.065.129-.065.194-.194.387Zm-1.874 1.422c0-.258.194-.452.452-.452.259 0 .453.194.453.452 0 .194-.13.388-.323.452v1.228h-.388V21.71c-.065-.129-.194-.258-.194-.452Zm7.237 2.003.065.517h-9.37v-.517h9.305Zm-2.714-2.908c-.064-.258-.194-.517-.581-.646-.388-.13-.711.065-.711.065s-.065-.13-.259-.259c0-.064.065-.258.065-.323.065-.129.194-.452.323-.775l.388-.582c0 .13.065.323.065.517.064.517.258.905.258.905l.13.388.128-.323s.13-.324.324-.582a1.41 1.41 0 0 1 .258-.323c.065.452.13.84.259 1.357.194.71.646 1.292.84 1.486a4.16 4.16 0 0 0-.517 1.228h-.323v-.517c.194-.13.323-.388.323-.71.064-.518-.259-.906-.97-.906Zm-.258.905c0-.258.194-.452.452-.452.259 0 .453.194.453.452 0 .194-.13.388-.259.452v1.228h-.388V21.71c-.194-.129-.258-.258-.258-.452Zm-1.034-.71c0-.26.194-.453.452-.453.259 0 .453.194.453.452 0 .194-.13.388-.323.453v1.874h-.388V21c-.13-.065-.194-.259-.194-.453Zm7.884-4.072s-.13-.323-.582-.581c-.452-.259-.646-.259-.646-.259s.258-.258.646-.065c.388.194.517.259.582.518.064.258 0 .387 0 .387Zm.129-1.163c.388.13 1.163.452 1.422.582.71.258 1.357-.13 1.357-.13s-.259.647-1.099.517c-.582-.064-1.228-.387-1.486-.581-.453-.259-.776-.323-.776-.323s.323-.13.582-.065Zm.646-2.39s.582 0 .97.387c.387.323.581.581.452.97-.13.387-.323.451-.323.451s-.388-.323-1.034-.323c-.388 0-1.163.065-1.551.453-.065.064-.13 0-.065-.065.13-.13.194-.194.388-.452.258-.388.388-.517.646-.84.259-.324.517-.582.517-.582Zm-6.333.128h.711c.323-.064.711-.064 1.099-.064.387 0 .84-.13 1.486.129.71.258 1.098.388 1.098.388s.259-.194.453-.453a1.09 1.09 0 0 0 .258-.452s-.194.065-.387 0c-.194-.065-.776-.258-1.422-.13-.71.13-1.486.195-2.262.065-.775-.129-.904-.323-.904-.323s.387.13 1.68-.129c1.615-.258 3.23-1.034 3.683-.452.13.194.065.452-.065.71-.064.194-.452.905-.84 1.293-.258.323-.517.517-.775.71-.13.13-.71.453-1.034.582-.388.13-.775.259-1.034.323l1.099-1.809-.388.065s-.71.193-1.422.517c-.194.129-.517.323-.71.452 0-.194.064-.388.064-.452.065-.259.194-.388.258-.453l.13-.129.129-.065c-.065 0-.194-.064-.452-.129a1.61 1.61 0 0 1-.453-.194Zm3.554-.323c.259 0 .259.065.324.065v.194l-.259-.065c-.258-.065-.194-.13-.194-.13s-.129-.064.13-.064Zm.647.388s.064 0 .129-.065c.13-.129.13-.194.13-.194l.193.065-.194.258-.258-.064Zm-6.592 4.782c.13-.388.324-.776.453-1.099.323-.452.71-.84.969-1.034 0 .065-.065.194-.065.259-.064.323-.064.646-.064.84v.84l.258-.517s.259-.452.517-.775c.194-.259.388-.388.582-.517-.065.194-.13.452-.194.581-.065.259-.065.517-.065.711 0 .323 0 .582.065.582l.065.387.258-.323s.452-.581.776-.904c.258-.324.581-.517.84-.711.258-.194.387-.259.387-.259l-.194-.258s-.71.452-1.292 1.034a4.53 4.53 0 0 0-.517.646v-.13c0-.193 0-.452.065-.646 0-.193.129-.387.194-.646l.129-.388.129-.387-.388.194s-.581.323-1.098.904c-.13.13-.194.259-.259.388 0-.13 0-.323.065-.452.065-.388.13-.647.13-.647l.128-.387-.323.194s-.194.129-.517.387c.065-.064.065-.129.13-.194.258-.387.581-.775.581-.775s-.452-.13-.582-.13c-.129 0-.323-.064-.323-.064s.453-.13.84-.258c.324-.065.711-.323.905-.453 0 .065-.064.065-.064.13-.065.258-.13.904-.194.904l-.065.388.323-.258s.646-.517.97-.711a3.78 3.78 0 0 1 .969-.388h.064l-1.033 1.745.323-.065s.775-.065 1.486-.323l.13-.065c.58-.194.968-.581.968-.581.388-.259.711-.646.905-.905.388-.646.776-1.163.776-1.163h.129c.064 0 .129.065.129.065s-.258.258-.388.452c-.194.194-.581.775-.904 1.228-.324.452-.84 1.034-1.099 1.227-.323.194-.517.388-.517.388l-.323.065s-.84.258-1.68 1.55c-.84 1.358-.711 2.456-.517 2.909.065.064.13.258.258.387a.89.89 0 0 1-.258.194c-.065-.064-.13-.194-.194-.258a3.864 3.864 0 0 1-.517-1.034c-.194-.582-.258-1.034-.323-1.68v-.388l-.258.323s-.259.323-.518.71c-.064.066-.129.195-.193.26-.065-.13-.065-.26-.13-.453-.064-.517-.129-.84-.129-.84v-.388l-.064.13s-.388.387-.647.904c-.064.13-.129.194-.194.323 0-.323.13-.581.194-.775Zm-.581 2.003c.258 0 .452.194.452.452 0 .194-.13.388-.323.453v2.068h-.388v-2.133c-.194-.065-.258-.258-.258-.452.065-.194.258-.388.517-.388Zm-8.465-8.271c.452-.646 2.132.129 3.683.452 1.292.194 1.68.13 1.68.13s-.13.258-.905.322c-.775.13-1.55.065-2.261-.064-.711-.13-1.228.129-1.422.129-.194.065-.388 0-.388 0s.065.258.259.452l.452.453s.388-.13 1.099-.388c.71-.259 1.098-.13 1.486-.13.388 0 .775.065 1.098.065.324.065.711 0 .711 0s-.194.13-.517.194c-.194.065-.387.065-.452.13l.13.064c.064.065.128.065.128.13.065.064.13.258.194.452 0 .064.065.258.065.452a2.182 2.182 0 0 0-.71-.452 5.324 5.324 0 0 0-1.422-.517l-.324-.13 1.099 1.81c-.259-.065-.71-.13-1.034-.323-.388-.13-.905-.453-1.034-.582-.194-.194-.452-.388-.775-.71-.388-.389-.711-1.035-.84-1.293-.065-.194-.13-.452 0-.646Zm2.197 1.163-.194.13-.259.064s0-.13-.064-.194c0 0 .064-.065.323-.065.258 0 .194.065.194.065Zm-.905.323-.194.064-.258-.258.193-.065s0 .065.13.194a.2.2 0 0 0 .129.065Zm-2.197 1.292c-.711 0-1.034.323-1.034.323s-.194-.064-.323-.452c-.13-.388.064-.646.452-.97.388-.322.97-.387.97-.387s.323.258.517.582c.258.258.387.452.646.84.194.258.258.323.387.452.065.065 0 .13-.064.065-.323-.388-1.163-.517-1.551-.453Zm.581 1.293c-.258.194-.904.452-1.486.581-.904.13-1.098-.517-1.098-.517s.646.388 1.357.13c.323-.13 1.034-.388 1.421-.582.259-.065.582.065.582.065s-.388.064-.776.323Zm.84.194c-.452.258-.581.581-.581.581s-.065-.194.065-.387c.064-.259.193-.324.581-.518.388-.193.646.065.646.065s-.258 0-.71.259Zm4.33 4.458c.259-.517.388-1.615-.517-2.907-.84-1.357-1.68-1.551-1.68-1.551l-.323-.065s-.194-.194-.517-.388c-.259-.194-.776-.775-1.099-1.227-.258-.388-.71-1.034-.904-1.228l-.453-.453s.065-.064.13-.064h.129s.388.517.775 1.163c.194.323.582.646.905.905 0 0 .388.387.97.581l.193.065c.71.258 1.486.323 1.486.323l.324.065-1.034-1.745h.064c.259.064.582.194.97.388.323.193.969.71.969.71l.323.259-.065-.388s-.064-.646-.194-.905c0-.064 0-.064-.064-.129.194.13.581.323.904.453.388.129.84.258.84.258s-.193.065-.323.065c-.129 0-.581.129-.581.129s.388.388.581.775c.065.065.065.13.13.194a2.268 2.268 0 0 0-.517-.388l-.323-.194.129.388.13.647c0 .129.064.323.064.452-.065-.13-.194-.259-.259-.388-.517-.582-1.034-.905-1.098-.905l-.388-.194.194.388.13.388c.064.194.128.452.193.646.065.259.065.453.065.646v.13a4.542 4.542 0 0 0-.517-.647c-.582-.646-1.293-1.034-1.293-1.034l-.194.259.388.259c.258.193.582.452.84.71.323.323.776.905.776.905l.258.323.065-.388v-.581c0-.194 0-.453-.065-.711 0-.194-.13-.388-.194-.582.194.13.388.324.582.517.323.323.517.776.517.776l.258.517v-.84c0-.194 0-.517-.064-.84 0-.065-.065-.194-.065-.259.258.194.646.517.97 1.034.193.323.322.71.452 1.099.064.258.194.517.258.775-.065-.13-.13-.194-.194-.323-.323-.517-.646-.905-.646-.905l-.258-.258v.387s0 .388-.13.84a.931.931 0 0 1-.129.453c-.065-.065-.13-.194-.194-.259-.258-.387-.517-.71-.517-.71l-.258-.323v.387c-.065.646-.13 1.099-.323 1.68a3.9 3.9 0 0 1-.517 1.034 1.38 1.38 0 0 1-.259.323c-.064-.064-.129-.194-.194-.258.194 0 .323-.194.388-.259Zm-3.554 2.52c-.646-1.163.258-2.52 1.422-2.52 1.163 0 2.197.905 2.39 2.198 0 .129 0 .193.065.323h-1.357c0-.323-.065-.517-.258-.647-.646-.775-1.357-.064-1.357-.064s-.194.258-.065.323c.13.065.323.065.323.065s.388-.259.71-.065c.324.258.389.646.195 1.034-.259.387-1.486.517-2.068-.646Zm-5.105-5.88s.582.453 2.197 2.197c1.616 1.745 1.293 1.939.646 2.779-.581.84-.646 1.486-.323 2.068.323.581 1.293 1.292 2.714 1.034.453-.065 1.357-.323 1.81-.646-.065.323-.259.84-.647 1.615v.065c-.452.84-.84.969-.84.969l-.84-.582s-.258.194-.388.323l-.516.259s-.194-.065-.388-.259c-.13-.129-.388-.646-.388-.646s-.258.259-.581.388c-.259.13-.776.194-.776.194s-.323-.259-.452-.582c-.13-.258-.13-.775-.13-.775h-.258c-.13 0-.258 0-.452-.065-.323-.13-.582-.323-.582-.323s.065-.194.194-.452c.258-.323.646-.582.646-.582s-.452-.258-.71-.452c-.26-.259-.453-.711-.453-.711s.13-.194.388-.452c.323-.194.71-.388.71-.388l-.516-.517c-.194-.194-.323-.71-.323-.71s.193-.13.581-.195c.517-.064.905-.064.905-.064s-.259-.259-.517-.582c-.259-.323-1.228-1.228-1.293-1.81 0-.84.582-1.098.582-1.098Zm-2.197 4.847c.775.194 1.615.323 1.939.323l-.065.064c-.323.259-.517.453-.582.582a.911.911 0 0 0 .194.323c-.194.065-.646.065-1.098 0-.97-.13-1.68-.517-2.004-.646.065-.065.259-.259.84-.517.453-.13.647-.13.776-.13Zm-2.068-1.616c.13-.065.388-.258.905-.323.323 0 .517-.065.71-.065.711.517 1.68.905 2.068 1.034.13.323.259.582.388.646-.258 0-.84 0-1.939-.323-.904-.193-1.744-.581-2.132-.969Zm1.55 3.231c.841.323 1.875.259 2.327.259.13.194.388.258.453.323l-.323.323c-.324.064-.647.13-1.358.13-.969 0-2.067-.26-2.39-.389.064-.129.258-.323.646-.517a3.14 3.14 0 0 0 .452-.194c.065.065.13.065.194.065Zm1.1 1.616c.516 0 .775-.065 1.033-.13-.064.065-.064.194-.064.194s.258.259.646.453c-.13.064-.388.194-.582.258a6.847 6.847 0 0 1-2.261.388c0-.13.129-.323.387-.646.259-.259.582-.388.711-.517h.13Zm.452 2.003c.064-.194.129-.453.129-.582.776-.194 1.745-.775 1.745-.775s0 .323.194.71c0 .065.064.065.064.13-.129.13-.323.388-.969.646-.71.323-1.228.323-1.228.323s0-.064.065-.452Zm1.421.646c.776-.517.905-.71 1.034-.84l.259.259c.13 0 .258-.065.517-.13a2.589 2.589 0 0 1-.711 1.293c-.452.452-.97.517-.97.517s-.064-.194-.129-.517c-.064-.259-.064-.517 0-.582Zm2.133-.452c.064-.194.064-.323.064-.453.324-.064.453-.194.453-.194s.13.324.258.518c.065.064.194.193.323.258 0 .259 0 .71-.193 1.099-.323.581-.84.71-.84.71s-.194-.129-.324-.387c-.129-.194-.129-.388-.193-.517.129-.323.387-.776.452-1.034Zm-2.456-7.69.582.581s-.388 0-.775.194c-.259-.129-.84-.323-1.616-.775-.84-.452-1.616-1.163-1.939-1.422.13-.064.517-.129 1.034-.064.323.064.582.129.711.129.84.84 1.616 1.163 2.003 1.357Zm-2.197-4.33c.065.194.323.582.711 1.164.323.452.646.71.84.84-.194.387-.065.904 0 1.034-.258-.13-.646-.388-1.098-.905-.517-.582-.84-1.357-.84-2.068-.065-.388.193-.452.387-.065ZM18.094 9.82c0-.775.517-.969.775-.452.517 1.034 1.357 2.779 2.003 3.813a21.019 21.019 0 0 0 1.422 1.938c-.13.646.065 1.163.065 1.228-.582-.388-1.228-.775-2.65-2.585-.71-.97-1.615-2.778-1.615-3.942Zm-.776 4.847c-.323-.517-.646-1.293-.581-1.874 0 0 .387.13.71.452.776.711 2.068 1.68 2.392 2.003 1.292 1.357 2.907 2.456 2.907 2.456s0 .065.13.194c-.905-.323-1.745 0-1.745 0-.259-.13-.388-.13-2.068-1.357-.517-.388-1.292-1.163-1.745-1.874Zm-1.163 1.55c.065 0 .259-.064.776 0 .258.065.71.13.904.195l.065.064c1.357 1.357 3.102 2.068 3.619 2.262.194.258.387.517.71.84 0 0-.387 0-.775.065-.388-.13-1.228-.453-2.714-1.228-1.616-.84-2.326-1.68-2.585-2.197Zm-.323 2.973c.065 0 .388-.064.905-.064.581 0 1.615.064 1.745.129.323.13.516.194.84.323.452.13 1.098.323 1.421.388-.323.129-.388.194-.388.194s.259.387 1.164 1.033c-.388-.064-1.487 0-3.36-.517-1.293-.452-1.81-.904-2.327-1.486Zm.13 2.585c.129-.065.387-.13.775-.259.517-.129 1.098-.064 1.421-.064.711.258 1.228.258 1.745.258.84.065 1.551 0 2.068 0 0 0-.323.065-.776.388a1.44 1.44 0 0 0-.387.453c0 .064.129.129.194.193-.388.065-1.293.194-2.908-.064-1.228-.194-1.874-.646-2.133-.905Zm.387 2.65c.065-.065.388-.259.84-.517.323-.194.97-.324 1.293-.388.84.064 1.486 0 2.003-.13.646-.129 1.034-.258 1.227-.258 0 0 .194.13.259.13-.194.064-.582.193-.84.387-.323.259-.388.452-.388.517.065.13.453.323.453.323-.582.194-1.228.323-2.198.323-1.874.13-2.39-.13-2.649-.387Zm.517 2.649c0-.065.194-.388.646-.776.259-.193.646-.517.776-.517a11.26 11.26 0 0 0 2.907-.517c.517-.193.776-.323.905-.387.517.194.84.194.905.194-.323.129-1.034.84-2.973 1.615-1.744.711-2.455.582-3.166.388Zm1.486 2.197s.065-.582.646-1.357c.97-.194 2.198-.905 2.715-1.293l.258-.129c.258.13.905.13 1.163.13-.388.323-1.81 1.615-2.972 2.132-1.164.582-1.81.517-1.81.517Zm3.425.905c-.905.646-1.615.71-1.615.71v-.517c.064-.516.193-.775.193-.775 1.034-.452 2.133-1.68 2.52-2.262.065-.129.453-.581.582-.775h.259c-.065.13-.13.323-.13.646-.064.388 0 .776 0 .776h.194c-.258.387-1.034 1.486-2.003 2.197Zm2.003 1.034c-.775.775-1.486.775-1.486.775v-.582c0-.258.13-.775.13-.84.84-.775 1.42-1.874 1.744-2.52.258 0 .582-.064.84-.194v.646c0 .194.13.453.13.647-.13.452-.518 1.292-1.358 2.068Zm2.456.323c-.646.84-1.357 1.098-1.357 1.098s-.194-.194-.194-1.228c.517-.71.84-1.55 1.099-2.197a1.98 1.98 0 0 0 1.098-.646c0 .13.065.323.194.517 0 .065.194.259.194.323-.259.97-.582 1.551-1.034 2.133Zm2.197.129c-.323.84-.905.97-.905.97s-.258-.582-.323-1.422c.259-.517.323-.905.453-1.487.193-.129.581-.323.84-.646 0 .065.194.388.258.582 0 .904-.065 1.421-.323 2.003Zm.97-2.068s-.13-.13-.324-.388c-.13-.194-.258-.452-.258-.517l.129-.387c.065-.323.13-.646.13-.905 0 0 .128-.065.451-.258.259-.194.453-.324.453-.324l.517.388c0 .194 0 .71-.259 1.293-.387.775-.84 1.098-.84 1.098Zm.193 6.656c-.065-.258-.065-.388.065-.517.129-.13.258-.517.323-.452.064.064 0 .194-.065.323-.064.129-.258.258-.258.388.064.064.258-.065.258-.065s-.064.258.065.323c.13.065.194-.13.258-.13.065 0 .194.26.388.324.194 0 .388-.194.388-.194l.323.065s.194.387-.13.517c-.322.129-.516 0-.775-.194-.129-.323-.71-.194-.84-.388Zm1.745-.323c0-.065.065-.194.065-.194s.064-.13.064 0c.065.13.065.258 0 .258 0 .065-.13 0-.13-.064Zm-.13 2.068c-.064-.065-.258.064-.322-.13-.065-.193.064-.193.323-.064.194.13.323.194.258.258-.064.065-.194.065-.258-.064Zm.388-.453c-.323.065-.517-.194-.775-.258-.259-.065-.517.065-.71-.194-.195-.258 0-.388.064-.388s0 .13.064.13c.065.064.13-.065.194-.065.065 0 0 .194.065.194.064 0 .064-.13.13-.065.128.065.387.13.516.13.13 0 .388-.26.582-.065.194.194.194.517-.13.581Zm.323-.84s.259-.194.194.065c-.064.258-.064.388-.258.194-.13-.259.064-.259.064-.259Zm.259 1.616c-.259 0-.388-.065-.323-.323.064-.259.064-.13.258-.194.194-.065.453-.065.453.194 0 .258-.194.323-.388.323Zm.388-.646c-.13-.065-.065-.194 0-.259.064-.065.129-.065.194.13 0 .258-.065.258-.194.129Zm.904 8.788c-.452.323-.904.388-1.357.258-.581-.129-.775-.452-.904-.71-.194-.388-.065-1.099-.065-1.422 0-.065.259-.905.259-1.099 0-.129.064-.258-.065-.258-.194.065 0 .194-.582.582-.452.258-.71.775-.646 1.357.065.581 0 .71 0 .71l-.13-.387c-.064-.13-.128-.259-.258-.711-.129-.453.13-.776.388-1.099.259-.323.582-.646.582-.646s-.259-.065-.453-.194-.387-.323-.387-.581c0-.259.258-.453.258-.453s-.065.323.13.517c.129.194.516.323.904.323s1.034-.452 1.292-.775c.259-.323.647-.582.905-.776.388-.258.517-.258.84-.323h.323c-.646.323-1.745 1.228-2.39 2.456-.453.84-.518 1.55-.324 2.003.194.453.517.646.84.711.323.065.582 0 .84-.065.259-.064.517.065.647.13.193.194.193.258.193.258s-.387-.065-.84.194Zm-.517-11.567.388-.388.71.97-.193.193-.905-.775Zm.647.97-.13.129-.904-.647.129-.129.065-.065.84.711Zm.646-.324.129.065-.71.775-.065-.129.646-.71Zm.323.388.97 1.034-.324.387-1.098-.904.452-.517Zm1.163 1.228.065.064-.323.453-.13-.065.388-.452Zm.259.258 6.074 6.204-.13.129-6.268-6.01.324-.323Zm5.945-1.745c.323 0 .323.065.064.259-.258.194-1.421.517-1.421.517s.517.064.775.064c.259 0 .388.065.194.259-.194.258-1.551.388-1.551.388s.452.064.71.194c.13.064.26.129-.064.323-.323.194-1.292.452-1.292.452s.581.194.258.452c-.388.194-1.227.388-1.227.388s.516.194.387.323c-.064.065-.194.13-.388.13l-.904-.97c1.744-1.68 3.166-2.908 4.265-3.49 1.098-.581 1.227-.452.775 0-.452.453-1.228.647-1.228.647s.388.064.647.064Zm-.453 8.143.323.323c-.646.129-.646-.13-.646-.13s.065 0 .323-.194Zm-.581-.065s-.323-.323-.776-.905c-.258-.387-.452-.646-.71-1.034l1.873 1.81c-.194.194-.387.129-.387.129Zm.581 1.292c.259-.323.13-.517.13-.517s.129.065.387 0c.13 0 .259-.064.259-.064s.129.258-.065.517c-.194.258-.388.258-.71.323-.26.064-.324 0-.324 0s.194-.065.323-.259ZM37.545 40c0 .064 0 .064 0 0-.193.258-1.744.581-1.744.581l-3.038 2.908s.065-.323.518-.84c.84-.904 2.39-2.261 3.489-3.36l.775.71Zm-4.33 5.234s-.258 0-.452-.13c-.258-.258-.193-.71-.193-.71s.129.13.387.13h.324s-.065.193-.13.322c0 .194.065.388.065.388Zm-.128-.97c-.13 0-.324-.128-.388-.193l.388-.388c.064.065.194.13.323.194.323.13.646.065.646.065s-.194.452-.97.323Zm.84-.58s-.323 0-.388-.388l2.52-2.391h.065l-.194.387c-.388.711-.776 1.034-1.099 1.357-.323.323-.904 1.034-.904 1.034Zm.775 3.489c-.452-.13-.775-.582-.775-.582s.194-.064.387-.064c.194 0 .453.129.453.129v-.323c0-.194-.065-.323-.259-.647-.323-.387-.71-.323-.84-.452 0 0-.064-.13-.064-.323 0-.194.064-.323.129-.388.064-.064.388-.194.581-.387.194-.194.324-.453.324-.453h-.194s.517-.646 1.163-1.357c.581-.646.84-1.292.97-1.615h.128c-.064.194-.194.646-.323.904-.194.388-.517.905-.84 1.551-.388.776-.71 1.422-.646 2.004.065 1.357 1.615 1.873 1.615 1.873-.129.13-.904.388-1.809.13Zm1.616-3.49c-.065.388-.194.97-.259 1.68-.064.776.065 1.293.065 1.293s-.711-.388-.776-1.228c0-.517.194-1.099.388-1.615.194-.517 1.099-2.908 1.099-2.908h.129c-.065.646-.517 2.52-.646 2.778Zm.258 3.296c-.13-.065-.13-1.293-.13-1.874.066-.84.26-1.81.518-2.973.065-.452.194-.904.258-1.292h.13c0 .775.064 1.939 0 2.843 0 0-.259.582-.323.711-.065.194-.259.71-.259 1.422 0 .646.13 1.034.13 1.034s-.195.194-.324.129Zm.905 1.357-.13-.13s-.193-.258-.322-.387a1.79 1.79 0 0 1-.259-.452l.258-.065.259.517c.065.065.194.259.194.259v.258Zm.064-.776v-1.292c0-.517-.064-1.81-.064-2.132 0 0 .646.452.581 1.809-.064.905-.323 1.292-.517 1.615Zm.259-6.72h.194s.97 2.52 1.163 3.037c.194.517.388 1.099.388 1.486 0 1.099-.97 1.616-.97 1.616s.323-.646.323-1.551c0-.97-.969-4.006-1.098-4.588Zm2.714 5.299c-.323 1.034-1.357 1.034-1.68 1.034 0 0 .775-.323.97-1.099.193-.71.193-1.292-.324-2.455-.452-.97-1.034-2.391-1.163-2.844h.13l.064.065c.129.194.452.775.84 1.616.517 1.033.775 1.357.97 1.873.322.776.387 1.357.193 1.81Zm.646-4.847c.13.13.323.259.453.388.323.258 1.098.84 1.615.97.71.129 1.228-.065 1.357-.324.13-.194.13-.388.13-.388s.128.065.193.259c.13.323-.13.582-.388.71-.323.195-.775.195-1.163.13-.387 0-.064.13.13.323.581.388 1.356.517 1.421 1.099 0 .387 0 .452-.065.904-.064.323-.129.13-.129.13s0-.194-.129-.323c-.258-.324-.582-.388-.775-.776-.194-.323-.517-.905-.711-.71-.13.064.84 1.486.129 2.39-.775 1.034-1.422.259-1.874.259-.194 0-.582.258-.582.258s.13-.581.259-.71c.13-.13.323-.195.646-.195.323-.064.97-.129 1.034-.969 0-.323-.258-.775-.323-.904l.194-.194-2.714-2.714H40c.194-.065.775.064 1.163.387Zm.84-3.748c-.194.13-.323.194-.452.194-.065 0-.13.065-.259.13-.646.258-.71.904-.775 1.809-.065.904-.323.71-.582.71h-.517l-.646-.646c.13-.064.259-.064.323-.129.259-.194.065-.452.065-.452s.517-.065.905-.323c.387-.259.194-.517.194-.517s.581-.194.904-.388c.453-.323.13-.581.13-.581s.452-.065.71-.324c.517-.517-.064-.581-.064-.581s.387-.13.646-.388c.388-.388 0-.517 0-.517s.71-.517.71-.905c0-.323-.452-.323-.71-.193-.388.129-.97.452-1.81.969-.71.517-2.132 1.745-3.36 2.908l-1.163-1.228-1.615-1.745-.194-.064-1.034-1.228-1.228 1.357 1.292.97.065.128 1.874 1.487 1.228 1.163c-.453.452-.84.904-1.357 1.357h-.13c-.323 0-.452.13-.581-.71-.13-.841-.194-1.552-.776-1.81-.193-.065-.387-.13-.71-.323.064-.324-.13-.517-.259-.517-.065 0-.194 0-.323.194-.065 0 0 0-.065-.065 0 0 .065-.13.065-.194.13-.194.13-.582-.13-.646a.323.323 0 0 0-.322.064s-.065.065-.065-.064c-.064-.13-.064-.13 0-.259 0-.129 0-.258-.13-.581-.064-.259-.322-.323-.516-.194-.13.13-.065.258-.194.388h-.065a4.683 4.683 0 0 1-.323-.582c-.84-1.874-.323-4.33-.064-5.363.258-1.034 1.098-2.844 1.486-3.748.194-.453.388-.905.581-1.616l1.422-.388c-.13.776-.323 1.616-.517 2.262-.323 1.034-.84 2.585-1.034 3.36-.194.776-.387 2.585.388 3.684.646.969 1.55 1.486 2.262 1.744V24.425l.387-.258v11.18c.259.064.453.128.711.193V24.426l.388-.259v11.438c.194 0 .452.064.71.064V24.426l.389-.259v11.502c.258 0 .452 0 .71-.064v-11.18l.388-.258V35.54c.194-.065.452-.13.71-.194v-10.92l.389-.259v11.115c.71-.259 1.55-.776 2.261-1.745.776-1.099.582-2.908.388-3.683-.194-.776-.71-2.327-1.034-3.36-.194-.582-.323-1.1-.452-1.94l1.357-.322c0 .129.064.194.064.323.13.581.259 1.034.453 1.357 0 .064.064.129.129.194.388.904 1.228 2.714 1.486 3.748.259 1.034.776 3.489-.064 5.363-.065.065-.065.194-.13.258-.064.13-.129.194-.194.388h-.064c-.13-.129-.065-.258-.194-.388-.13-.129-.388-.129-.517.194-.065.259-.13.453-.13.582v.258c-.064.13-.064.065-.064.065s-.064-.13-.323-.065c-.258.065-.258.453-.13.647 0 0 .066.129.066.194l-.065.064c-.13-.194-.259-.194-.323-.194-.453-.194-.646 0-.582.323Zm1.616-1.615c0 .065-.13.13-.194.13-.065 0-.065-.13 0-.26.064-.129.064 0 .064 0s.194 0 .13.13Zm-.582 1.034c-.194.194-.194.064-.258-.194-.065-.259.194-.065.194-.065s.258 0 .064.259Zm-.775.581c0-.194.129-.194.194-.129.064.065.129.194 0 .259-.194.129-.259.129-.194-.13Zm.517.776c-.259 0-.388-.065-.388-.323 0-.259.194-.194.452-.194.194.065.259-.13.259.194.064.323-.065.323-.323.323Zm.969-.323c-.065.064-.194.129-.259 0-.064-.13 0-.194.259-.259.194-.129.323-.129.323.065-.065.258-.258.13-.323.194Zm1.098-.97c-.193.259-.452.13-.71.194-.259.065-.517.323-.776.259-.323-.065-.258-.259-.064-.517.194-.259.452 0 .581.064.13 0 .388-.129.517-.129.065-.064.065.065.13.065.064 0 0-.13.064-.194.065-.065.065.065.194.065.064-.065 0-.13.064-.13.065 0 .194.065 0 .323Zm0-.904c.13-.065.065-.323.065-.323s.194.129.259.064c.064-.064-.194-.258-.259-.388-.065-.129-.13-.258-.065-.323.065-.064.194.323.324.453.129.129.194.323.064.517-.064.258-.646.064-.97.258-.258.194-.451.388-.775.194-.323-.13-.129-.517-.129-.517l.323-.065s.194.259.388.194c.194 0 .323-.323.388-.323.258.13.258.323.387.259Zm1.034-6.915c-.193.259-.323.388-.323.388s-.517-.388-.775-1.034c-.259-.581-.259-1.163-.259-1.292l.517-.388s.194.13.453.323c.258.194.452.259.452.259 0 .258 0 .581.13.904l.129.388c-.065.065-.194.259-.324.452Zm1.487 3.425s-.517-.064-.905-.97c-.258-.58-.323-1.098-.388-2.002.13-.194.259-.582.259-.582.258.323.646.517.84.646.13.646.258.97.452 1.487.065.84-.258 1.421-.258 1.421Zm2.714 0s-.711-.258-1.422-1.098c-.452-.582-.71-1.163-1.034-2.068 0-.065.194-.259.194-.323.13-.259.194-.453.194-.517.388.323.775.517 1.098.646.259.71.582 1.486 1.099 2.197.065.97-.13 1.163-.13 1.163Zm2.584-.646s-.71 0-1.486-.775c-.84-.776-1.227-1.616-1.421-2.068.064-.13.129-.453.129-.646v-.647c.323.13.646.194.84.194.323.646.905 1.745 1.745 2.52 0 .065.129.582.129.84.065.259.065.582.065.582Zm2.133-1.099s-.71-.064-1.615-.71c-.97-.711-1.745-1.874-2.004-2.197h.194s.065-.388 0-.776c-.065-.323-.13-.517-.13-.646h.26c.193.194.516.646.581.775.452.582 1.486 1.745 2.52 2.262 0 0 .13.259.194.776v.517Zm1.81-1.615s-.647.065-1.875-.517c-1.163-.517-2.584-1.81-2.972-2.133.258 0 .84 0 1.163-.129l.259.13c.581.387 1.744 1.098 2.714 1.292.646.775.71 1.357.71 1.357Zm.84-2.973c.452.388.581.711.581.776-.71.194-1.357.323-3.166-.388-1.939-.775-2.65-1.486-2.973-1.615.065 0 .452-.065.905-.194.129.064.323.194.904.387.647.259 1.551.517 2.908.517.194.065.647.324.84.517Zm.323-2.39c.517.258.84.452.84.517-.324.193-.776.516-2.714.452-.97-.065-1.616-.13-2.198-.323 0 0 .388-.194.453-.323 0-.065-.065-.259-.388-.517-.258-.259-.581-.323-.84-.388.065 0 .259-.13.259-.13.193.065.581.195 1.227.26.582.128 1.163.128 2.003.128.388 0 1.034.13 1.358.323Zm-.97-1.228c-1.615.194-2.52.129-2.908.064.065-.064.194-.129.194-.194 0 0-.13-.258-.388-.452-.452-.323-.775-.388-.775-.388.452 0 1.228.065 2.068 0 .517 0 1.034-.064 1.745-.258.323 0 .904 0 1.421.064a2.6 2.6 0 0 1 .776.259c-.194.259-.84.71-2.133.905Zm-8.271.387.97.065.193-.258-.194-.259-.97.13v.322Zm-20.743-9.111v-.452s-.259.258-.388.517c-.065.258-.065.323-.065.323s0-.13.323-.194c.259-.065.647-.065.647-.065l.064-.129s-.129-.065-.323-.065a.668.668 0 0 0-.258.065Zm19.515.258c.259.065.323.194.323.194s0-.064-.064-.323c-.065-.258-.388-.517-.388-.517v.453h-.323c-.194 0-.323.064-.323.064l.064.13c.065-.065.388-.065.711 0Zm-8.336-8.53c.13.194.258.388.323.582l.194-.194.194-.194a5.828 5.828 0 0 0-.323-.581c-.13.194-.259.323-.388.388Zm.452-.84c.13-.129.259-.258.324-.387l-.194-.194-.194-.194-.194.194-.194.194c.194.064.323.194.452.388Zm-4.006 0c.065-.129.194-.258.323-.387l-.194-.194c-.064-.065-.064-.13-.129-.194l-.194.194-.194.194c.13.194.194.258.388.388ZM31.6 8.206c-.064-.064-.129-.193-.194-.258l-.258.323c.065.065.13.194.194.324.065-.13.194-.259.258-.388Zm4.265-2.52c-.064-.064-.258-.193-.387-.387-.13.194-.259.452-.324.581l.194.194.194.194c.065-.194.13-.388.323-.581Zm8.078 2.65-.259-.323c-.064.13-.194.194-.194.258.065.065.194.259.259.324.065-.065.13-.194.194-.259Zm-21.906 2.326c.323-.129.517-.064.84 0 .323.065.71-.064.71-.064s-.387.194-.517.581c-.129.323.065.905.517.97.517.064.647 0 .905.064.259.065.517.065.517.065s-.194-.259-.388-.388c-.129-.13-.387-.258-.323-.517.065-.194.517-.517.84-.775.388-.323.323-.84.065-1.163a10.778 10.778 0 0 0-.776-1.034c-.323-.388 0-.84 0-.84s.518-.065.97-.13c.452-.064.646-.194.646-.194s0 .453-.065.84c-.064.324-.323 1.034.13 1.68.323.518 1.357.84 1.68.905.387.065.71.13 1.098.13h.065c.323 0 .71.064 1.81 0 1.098 0 1.938-.065 2.52-.194.646-.065 1.033-.194 1.292-.259A4.526 4.526 0 0 0 36.51 9.11s.453.194.97.194c.387 0 .904-.194.904-.194s.776.84 1.487 1.099c.581.194 1.227.388 1.874.452h.064c.647.065 1.422.13 2.52.194h1.875c.387 0 .71-.064 1.098-.129.323-.065 1.357-.388 1.68-.905.388-.646.194-1.357.13-1.68-.065-.388-.065-.84-.065-.84s.194.13.646.194c.452.065.97.13.97.13s.322.452 0 .84c-.26.387-.518.645-.776 1.033-.259.323-.323.84.065 1.163.323.324.775.582.84.776.064.258-.194.388-.324.517l-.387.387s.323 0 .517-.064c.194-.065.387 0 .904-.065.517-.064.647-.646.517-.97-.129-.322-.517-.58-.517-.58s.388.129.711.064c.323-.065.517-.13.84 0 .323.13.323.323.323.323s.194-.388.13-.71c-.065-.388-.517-.582-1.034-.582-.517-.065-.194-.388 0-.582.194-.194.71-.581.581-1.228-.129-.646-.71-.84-1.486-1.034-.775-.193-.84-.84-1.228-1.163-.71-.517-1.292-.129-1.486.065-.258.194-.582.13-.84.258-.259.065-.452.259-.776.711-.387.711.13 1.422.453 2.197.258.711-.065 1.293-.97 1.486-.323.065-.646.065-.71.065 0-.065 0-.13.064-.258 0-.13.13-.453.323-.776.194-.323.388-.97.388-.97.065-.451-.258-.775-.452-.84-.194-.064-.388-.128-.711-.258a.906.906 0 0 1-.452-.258c.064-.065.064-.13.064-.259s-.064-.193-.064-.258h.064V6.59l-.323-.517.517.13V5.62l-.646.194.13-.582h-.582l.129.582-.517-.13v.518l.452-.13-.258.517v.065h.064v.065c-.064.064-.064.129-.064.258 0 .065 0 .194.064.258-.064.065-.194.13-.452.259-.323.13-.582.194-.71.258-.13 0-.453.324-.453.711.064.453.194.646.388.97.193.323.258.646.323.775v.194h-.259c-.258-.065-.775-.13-1.228-.259-.904-.387-1.68-1.098-1.938-1.55-.323-.517-.259-.711-.259-.97 0-.194.13-.517.13-.517.064-.258.193-.517.387-.84.323-.517.517-.905.517-1.421 0-.711-.258-1.099-.646-1.293-.258-.13-.582-.194-1.099-.388-.452-.129-.71-.323-.84-.387.065-.13.13-.194.13-.323 0-.13-.065-.259-.13-.388 0-.065-.064-.065-.064-.065h.064v-.064l-.452-.647h.71V.58l-.645.129.194-.711h-.905l.194.646-.711-.129v.775l.775-.129-.517.646v.065h.065c-.065.13-.13.258-.13.452 0 .13 0 .323.13.453-.065.064-.323.194-.776.323-.516.129-.84.194-1.163.388-.323.193-.581.646-.581 1.357 0 .646.452 1.163.71 1.744.26.582.324.84.324.97v.452c-.065.258-.065.323-.259.582-.387.516-.904.904-1.81 1.357-.516.258-1.033.387-1.227.387h-.258c0-.064 0-.129.064-.194 0-.129.13-.452.323-.775.194-.323.323-.517.388-.97.065-.452-.258-.775-.452-.84-.13-.064-.388-.129-.711-.258-.259-.065-.388-.194-.452-.258.064-.065.064-.13.064-.259 0-.064 0-.194-.064-.258V6.46h.064v-.065l-.258-.517.452.13v-.517l-.517.129v-.452h-.582l.13.581-.517-.129v.582l.517-.13-.323.517v.065h.064c-.064.065-.064.194-.064.258 0 .065 0 .194.064.259-.064.064-.194.13-.452.258-.323.13-.582.194-.71.259-.195.064-.453.388-.453.84.064.452.194.646.387.97.194.322.259.645.324.775 0 .064 0 .129.064.258 0 0-.323 0-.646-.065-.905-.193-1.228-.775-.97-1.486.26-.71.84-1.486.453-2.197-.259-.452-.517-.646-.775-.71-.259-.065-.582-.065-.84-.26-.259-.193-.84-.58-1.487-.064-.388.323-.452.97-1.228 1.163-.775.194-1.357.388-1.486 1.034-.129.647.388 1.034.582 1.228.194.194.452.517 0 .582-.517.064-.97.258-1.034.646-.065.388.13.71.13.71s-.066-.322.258-.452Zm26.3-4.33c.258-.064.388-.128.71-.258.324-.129.518-.387.906-.258.323.13.452.388.71.71.259.324.517.518.711.582.194.065.711.13.97.323.387.194.516.647.193 1.228-.387.517-.71.711-.646.97.065.258.388.387.646.452.711.064.776.517.776.517s-.323-.323-.84-.13c-.194.065-.582.13-.84.065a1.91 1.91 0 0 1-.388-.194s-.194.259-.065.388c.13.13.259.194.388.388.13.194.388.517-.13.775-.258.13-.58.13-.58.13s.387-.13.322-.518c-.064-.323-.517-.581-.775-.775-.453-.323-.388-.71-.13-1.034.194-.388.582-.775.905-1.228.259-.452.065-.646.065-.646s.97-.194.84.582c-.065.323 0 .581.194.387.194-.193.387-.71.064-.969-.323-.258-.646-.323-1.098-.388-.452-.064-1.228-.064-1.81-.323-.581-.258-.452-.258-.775-.323-.581-.194-.905.13-.905.13s.13-.518.582-.582Zm-.646 1.552c-.194-.388.129-.711.517-.776.194-.064.388.065.388.065v.323c0 .13.064.517.193.97.13.71-.064 1.098-.517 1.486-.258.193-.517.323-.517.323s.13-.13.259-.323c.13-.324.258-.582.13-.97-.195-.452-.26-.646-.453-1.098Zm-1.874 2.455v.13s-.388-.13-1.099-.13c-.71 0-1.098.13-1.098.13v-.259s.517-.194 1.098-.194c.582 0 1.163.194 1.163.194s-.064.065-.064.13Zm-2.003-.84s.258-.064.387 0c.13.065.323.388.323.388s-.258.065-.387 0a4.746 4.746 0 0 1-.323-.388Zm.904.259s-.129-.194-.129-.453c0-.258.13-.452.13-.452s.193.258.128.452c0 .259-.129.453-.129.453Zm.517-.259a.682.682 0 0 1 .388 0s-.065.194-.258.259c-.13.064-.518.064-.518.064s.194-.194.388-.323Zm0-1.938c.065 0 .065.193 0 .452 0 0 0 .065.065.065l.258-.259-.194-.194.194.065.259.064.323.324.13-.13.128.13a.2.2 0 0 1 .065.129c0 .064-.065.129-.13.194.13.258.13.323.195.323 0 0 0 .064-.065.194l-.065.129s-.064-.259-.194-.452c-.064.064-.193.258-.258.323.194.323.194.517.194.517l-.065.129-.129.258s-.065-.323-.258-.71c-.194.129-.259.193-.259.193l-.258-.194s.129-.064.323-.258c-.13-.194-.259-.323-.259-.388-.064.388-.129.646-.129.646l-.259-.129s.065-.258.065-.71c.065-.388.065-.776.065-.776l.258.065Zm-.517-.84c.13 0 .259.129.259.258 0 .13-.13.258-.259.258a.278.278 0 0 1-.258-.258c0-.13.129-.258.258-.258Zm-1.421 1.874c-.065.193-.194.452-.194.452s-.065 0-.065-.13c-.064-.129-.064-.193-.064-.193s.064-.065.193-.323c-.064-.065-.129-.13-.129-.194l.065-.13.129-.129.13.13c.193-.324.322-.324.322-.324l.194-.064.194-.065-.194.194.259.259s0-.065.064-.065c-.064-.259-.064-.452-.064-.452h.064l.323-.13s0 .388.065.776c.065.452.065.646.065.646l-.324.194s-.064-.259-.129-.646c-.064.064-.129.194-.258.387.194.194.323.259.323.259l-.259.194s-.129-.065-.258-.194c-.194.323-.259.71-.259.71l-.129-.258-.064-.129s0-.194.194-.517c0 0-.13-.194-.194-.258Zm-5.88.193c-.389 0-.712-.129-.712-.129l.259-.388s.194.194.452.194c.259 0 .388-.258.388-.258l.258.388c0 .064-.258.193-.646.193Zm.064-.969c-1.163.065-1.81.194-1.81.194v-.324s.905-.387 1.874-.322c.97 0 1.81.323 1.81.323v.323c-.065-.065-.711-.259-1.874-.194Zm-.065-3.23a.278.278 0 0 1-.258-.26c0-.129.129-.258.258-.258.13 0 .259.13.259.259s-.13.258-.259.258Zm.194.387c0 .129-.065.194-.194.194-.13 0-.194-.065-.194-.194 0-.13.065-.194.194-.194.13.065.194.13.194.194Zm-.194.452s.259.323.259.71c0 .389-.259.712-.259.712s-.194-.323-.258-.646c0-.388.258-.776.258-.776Zm0-1.55a.417.417 0 0 1-.387-.388c0-.194.193-.388.387-.388s.388.194.388.388a.417.417 0 0 1-.388.387Zm-1.55 2.52s.516-.065.775.064c.258.13.517.517.517.517s-.582.065-.776-.065c-.258-.064-.517-.517-.517-.517Zm1.809.646s.258-.453.581-.582c.259-.13.711-.13.711-.13s-.258.453-.452.582c-.259.065-.84.13-.84.13Zm2.132 2.132c.711.582 1.551 1.034 1.551 1.034s-1.098-.258-1.939-.775c-.775-.517-1.098-1.099-1.098-1.099l.71.065c.065-.065.194.323.776.775Zm-1.292-4.588.129-.13c-.065-.064-.065-.128-.065-.128l.065-.388s.13.194.258.323l.065-.065c.13-.129.194-.258.323-.323a9.553 9.553 0 0 1-.581-.517l.258.065.323.065s.065 0 .194.129l.065-.065.258.13-.13.129c.066.064.13.129.195.258L40 4.2c.13-.13.194-.26.194-.26l.13.324s0 .065-.13.194c.13.258.194.452.194.452l-.13.323s-.064-.258-.323-.581c-.129.129-.194.194-.323.387.13.194.259.453.323.582.13-.13.194-.259.194-.259l-.194.453-.194.323-.129.13-.194.193a.5.5 0 0 1 .065.194l-.065.452s-.258-.71-.517-1.098c-.258-.453-.517-.711-.517-.711l.065-.323s.13.064.388.452l.387-.388a2.806 2.806 0 0 0-.387-.452 2.848 2.848 0 0 1-.388.323l.065-.323Zm-.453-1.486.324.129h.064s-.065.582-.194 1.228l-.194 1.163-.258-.13s.064-.387.13-1.098l.128-1.292Zm-.646-1.228a.51.51 0 0 1 .517.517.51.51 0 0 1-.517.517.51.51 0 0 1-.517-.517c0-.323.194-.517.517-.517Zm-.904 1.422.323-.194.129 1.292c.065.711.13 1.099.13 1.099l-.26.129s-.129-.452-.258-1.163c-.065-.646-.13-1.163-.065-1.163Zm-1.358 2.972-.129-.13-.194-.322-.194-.388s.065.065.194.259c.065-.13.194-.324.323-.582-.129-.13-.258-.258-.323-.388a9.612 9.612 0 0 0-.323.582l-.129-.323s.065-.194.194-.453c-.065-.129-.13-.193-.13-.193l.13-.324s.065.065.194.259l.129-.13a.89.89 0 0 1 .194-.258l-.13-.129.26-.13.064.065c.129-.129.194-.129.194-.129l.323-.064.323-.13-.517.517c.064.13.194.259.323.323l.065.065c.129-.13.258-.323.258-.323l.065.388s0 .064-.065.129l.13.13.064.387s-.194-.13-.388-.323c-.13.129-.194.258-.388.452l.388.388c.259-.388.388-.453.388-.453l.064.324s-.258.258-.517.71c-.258.388-.516 1.099-.516 1.099l-.13-.452s.065-.065.065-.194l-.258-.259Zm-.129 2.908c.517-.452.711-.84.711-.84l.71-.065s-.322.582-1.098 1.099c-.84.517-1.938.775-1.938.775s.904-.387 1.615-.969Zm-3.554 1.099v.064s-.388-.129-1.098-.129c-.711 0-1.099.13-1.099.13v-.195s.517-.193 1.163-.193a3.52 3.52 0 0 1 1.099.193s-.065.065-.065.13Zm-1.228-.453s-.387 0-.517-.064c-.129-.065-.258-.259-.258-.259s.194-.064.388 0c.129 0 .387.323.387.323Zm0-.581c0-.194.13-.453.13-.453s.129.194.129.453c0 .258-.13.452-.13.452s-.129-.194-.129-.452Zm.323.517s.13-.323.324-.388c.129-.065.387 0 .387 0s-.194.323-.323.388c-.13.064-.388 0-.388 0Zm.324-2.197c.064 0 0 .193 0 .452 0 0 0 .065.064.065l.259-.259-.194-.194.194.065h.194s.064.064.323.388l.129-.13.13.13c.064.064.064.129.064.129 0 .064-.065.129-.13.194.13.258.13.323.194.323 0 0 0 .064-.064.194l-.065.129s-.064-.259-.194-.452c-.064.064-.194.258-.258.323.194.323.194.517.194.517l-.065.129c-.065 0-.13.129-.13.129s-.064-.323-.258-.71a1.792 1.792 0 0 0-.258.193l-.259-.194s.13-.064.323-.258c-.129-.194-.258-.323-.258-.388-.065.388-.13.646-.13.646l-.193-.129s0-.194.064-.646c.065-.388.065-.776.065-.776l.259.13Zm-.517-.905c.129 0 .258.13.258.258 0 .13-.13.259-.258.259a.278.278 0 0 1-.259-.259c0-.193.065-.258.259-.258Zm-1.422 2.65s0-.195.194-.518c-.065-.064-.194-.258-.259-.323a4.304 4.304 0 0 1-.194.453s-.064 0-.064-.13c-.065-.129-.065-.193-.065-.193s.065-.065.194-.324c-.065-.064-.13-.129-.13-.193l.066-.13.129-.129.129.13c.194-.324.323-.324.323-.388h.194l.194-.065-.194.194.258.258s0-.064.065-.064c-.065-.259-.065-.453-.065-.453h.065l.323-.129s0 .388.065.776c.064.452.064.71.064.71l-.258.13s-.065-.259-.13-.647c-.064.065-.129.194-.258.388.194.194.323.259.323.259l-.258.258s-.13-.065-.259-.194c-.194.323-.258.711-.258.711l-.13-.258c0-.065-.064-.13-.064-.13ZM27.4 7.817c-.194.452-.258.646-.388 1.034-.129.388 0 .646.13.97.129.258.258.322.258.322s-.258-.064-.517-.323c-.452-.387-.71-.775-.517-1.486.065-.452.13-.84.194-.97v-.322s.194-.13.388-.065c.323.13.581.388.452.84ZM22.618 9.95c.259 0 .582-.194.646-.453.065-.258-.323-.452-.646-.97-.388-.516-.258-.968.13-1.227.322-.13.775-.194.969-.323.194-.065.452-.323.71-.582.259-.323.388-.581.711-.71.323-.13.582.064.905.258.323.13.452.194.71.259.453.064.712.452.712.452s-.323-.323-.905-.13c-.323.13-.194.065-.775.324-.582.258-1.358.258-1.81.323-.452.064-.775.13-1.098.388-.323.258-.13.71.064.969.194.194.194-.065.194-.388-.13-.775.84-.581.84-.581s-.194.193.065.646c.258.452.646.904.905 1.228.193.323.258.775-.13 1.034-.258.193-.71.452-.775.775-.065.388.323.517.323.517s-.323.065-.582-.13c-.517-.258-.258-.58-.129-.775.13-.194.259-.258.388-.388.129-.129-.065-.387-.065-.387s-.194.129-.388.194c-.193.064-.581 0-.84-.065-.517-.194-.84.13-.84.13s-.064-.324.711-.388Zm6.98-1.68-.26-.324c-.064.13-.193.194-.193.259.064.064.194.258.258.323.065-.065.065-.194.194-.259Zm16.413 0c-.065-.065-.13-.194-.194-.26l-.259.324c.065.065.13.194.194.323 0-.13.13-.258.259-.388Z" fill="#E5E5E5"/></svg>