<svg width="44" height="44" fill="none" xmlns="http://www.w3.org/2000/svg"><path d="M8.843 31h1.56V14.104h-.864c-.6 1.824-2.256 2.928-4.536 3.024v.816h3.84V31Zm6.323-1.296c6.576-4.512 8.544-8.016 8.544-10.656 0-2.88-1.92-5.304-5.424-5.304-3.264 0-5.592 2.28-5.592 5.856v.336h1.632v-.312c0-2.976 1.68-4.632 3.96-4.632 2.496 0 3.768 1.8 3.768 4.056 0 2.76-2.16 5.664-8.808 10.656V31h10.92v-1.296h-9Zm16.041-.648h1.152v-5.928h5.928v-1.152h-5.928v-5.928h-1.152v5.928h-5.928v1.152h5.928v5.928Z" fill="#1A1A1A"/><path d="M8.843 31h1.56V14.104h-.864c-.6 1.824-2.256 2.928-4.536 3.024v.816h3.84V31Zm6.323-1.296c6.576-4.512 8.544-8.016 8.544-10.656 0-2.88-1.92-5.304-5.424-5.304-3.264 0-5.592 2.28-5.592 5.856v.336h1.632v-.312c0-2.976 1.68-4.632 3.96-4.632 2.496 0 3.768 1.8 3.768 4.056 0 2.76-2.16 5.664-8.808 10.656V31h10.92v-1.296h-9Zm16.041-.648h1.152v-5.928h5.928v-1.152h-5.928v-5.928h-1.152v5.928h-5.928v1.152h5.928v5.928Z" fill="#000" fill-opacity=".2"/><circle cx="22" cy="22" r="21" stroke="#1A1A1A" stroke-width="2"/><circle cx="22" cy="22" r="21" stroke="#000" stroke-opacity=".2" stroke-width="2"/></svg>