<svg width="36" height="36" fill="none" xmlns="http://www.w3.org/2000/svg"><path d="M32 4h-4v4h4V4Z" fill="#1A1A1A"/><path d="M32 4h-4v4h4V4Z" fill="#000" fill-opacity=".2"/><path d="M4 14h4v2H4v-2Z" fill="#1A1A1A"/><path d="M4 14h4v2H4v-2Z" fill="#000" fill-opacity=".2"/><path d="M10 16v2H8v-2h2Z" fill="#1A1A1A"/><path d="M10 16v2H8v-2h2Z" fill="#000" fill-opacity=".2"/><path d="M10 16v-2h4v2h-4Z" fill="#1A1A1A"/><path d="M10 16v-2h4v2h-4Z" fill="#000" fill-opacity=".2"/><path fill-rule="evenodd" clip-rule="evenodd" d="M14 10h2v2h-2v-2Zm2 2h2v2h2v2h-4v-4Z" fill="#1A1A1A"/><path fill-rule="evenodd" clip-rule="evenodd" d="M14 10h2v2h-2v-2Zm2 2h2v2h2v2h-4v-4Z" fill="#000" fill-opacity=".2"/><path fill-rule="evenodd" clip-rule="evenodd" d="M16 8V6h2V4h-4v4h2Zm0 0v2h2V8h-2Z" fill="#1A1A1A"/><path fill-rule="evenodd" clip-rule="evenodd" d="M16 8V6h2V4h-4v4h2Zm0 0v2h2V8h-2Z" fill="#000" fill-opacity=".2"/><path d="M20 10h2v2h-2v-2Z" fill="#1A1A1A"/><path d="M20 10h2v2h-2v-2Z" fill="#000" fill-opacity=".2"/><path d="M20 8h2V4h-2v4Z" fill="#1A1A1A"/><path d="M20 8h2V4h-2v4Z" fill="#000" fill-opacity=".2"/><path d="M26 14h-2v2h-2v2h4v-4Z" fill="#1A1A1A"/><path d="M26 14h-2v2h-2v2h4v-4Z" fill="#000" fill-opacity=".2"/><path d="M28 14h4v2h-4v-2Z" fill="#1A1A1A"/><path d="M28 14h4v2h-4v-2Z" fill="#000" fill-opacity=".2"/><path d="M4 18h2v4H4v-4Z" fill="#1A1A1A"/><path d="M4 18h2v4H4v-4Z" fill="#000" fill-opacity=".2"/><path d="M12 18h2v2h-2v-2Z" fill="#1A1A1A"/><path d="M12 18h2v2h-2v-2Z" fill="#000" fill-opacity=".2"/><path fill-rule="evenodd" clip-rule="evenodd" d="M12 22H8v-2h4v2Zm0 0h2v2h-2v-2Z" fill="#1A1A1A"/><path fill-rule="evenodd" clip-rule="evenodd" d="M12 22H8v-2h4v2Zm0 0h2v2h-2v-2Z" fill="#000" fill-opacity=".2"/><path d="M20 18h-2v2h-2v4h2v-4h2v-2Z" fill="#1A1A1A"/><path d="M20 18h-2v2h-2v4h2v-4h2v-2Z" fill="#000" fill-opacity=".2"/><path d="M22 20h2v4h-4v-2h2v-2Z" fill="#1A1A1A"/><path d="M22 20h2v4h-4v-2h2v-2Z" fill="#000" fill-opacity=".2"/><path d="M28 18v4h-2v4h-2v6h2v-6h2v-4h2v2h2v-2h-2v-2h2v-2h-4Z" fill="#1A1A1A"/><path d="M28 18v4h-2v4h-2v6h2v-6h2v-4h2v2h2v-2h-2v-2h2v-2h-4Z" fill="#000" fill-opacity=".2"/><path d="M14 26v4h2v2h2v-2h-2v-2h2v-2h-4Z" fill="#1A1A1A"/><path d="M14 26v4h2v2h2v-2h-2v-2h2v-2h-4Z" fill="#000" fill-opacity=".2"/><path d="M20 26h2v4h-2v-4Z" fill="#1A1A1A"/><path d="M20 26h2v4h-2v-4Z" fill="#000" fill-opacity=".2"/><path d="M32 26h-2v2h-2v4h4v-2h-2v-2h2v-2Z" fill="#1A1A1A"/><path d="M32 26h-2v2h-2v4h4v-2h-2v-2h2v-2Z" fill="#000" fill-opacity=".2"/><path d="M4 28h4v4H4v-4Z" fill="#1A1A1A"/><path d="M4 28h4v4H4v-4Z" fill="#000" fill-opacity=".2"/><path d="M8 4H4v4h4V4Z" fill="#1A1A1A"/><path d="M8 4H4v4h4V4Z" fill="#000" fill-opacity=".2"/><path fill-rule="evenodd" clip-rule="evenodd" d="M34 36a2 2 0 0 0 2-2V2a2 2 0 0 0-2-2H2a2 2 0 0 0-2 2v32a2 2 0 0 0 2 2h32Zm0-26h-8V2h8v8Zm-8 2h8v22H12v-8a2 2 0 0 0-2-2H2V12h8a2 2 0 0 0 2-2V2h12v8a2 2 0 0 0 2 2ZM10 34v-8H2v8h8ZM2 2h8v8H2V2Z" fill="#1A1A1A"/><path fill-rule="evenodd" clip-rule="evenodd" d="M34 36a2 2 0 0 0 2-2V2a2 2 0 0 0-2-2H2a2 2 0 0 0-2 2v32a2 2 0 0 0 2 2h32Zm0-26h-8V2h8v8Zm-8 2h8v22H12v-8a2 2 0 0 0-2-2H2V12h8a2 2 0 0 0 2-2V2h12v8a2 2 0 0 0 2 2ZM10 34v-8H2v8h8ZM2 2h8v8H2V2Z" fill="#000" fill-opacity=".2"/></svg>