<svg width="84" height="84" fill="none" xmlns="http://www.w3.org/2000/svg"><circle cx="42" cy="42" r="40.5" stroke="#1A1A1A" stroke-width="3"/><path d="M25.594 21.026a1.5 1.5 0 0 0-1.5 1.5v1.5h-2.5a1.5 1.5 0 1 0 0 3h2.5v1.5a1.5 1.5 0 1 0 3 0v-1.5h35.5a1.5 1.5 0 0 0 0-3h-35.5v-1.5a1.5 1.5 0 0 0-1.5-1.5Zm15 18.5a1.5 1.5 0 1 1 3 0v1h19a1.5 1.5 0 0 1 0 3h-19v2a1.5 1.5 0 0 1-3 0v-2h-19a1.5 1.5 0 1 1 0-3h19v-1Zm18 14.5a1.5 1.5 0 0 0-1.5 1.5v1.5h-35.5a1.5 1.5 0 1 0 0 3h35.5v1.5a1.5 1.5 0 1 0 3 0v-1.5h2.5a1.5 1.5 0 0 0 0-3h-2.5v-1.5a1.5 1.5 0 0 0-1.5-1.5Z" fill="#1A1A1A"/></svg>