<svg width="84" height="84" fill="none" xmlns="http://www.w3.org/2000/svg"><circle cx="42" cy="42" r="40.5" stroke="#1A1A1A" stroke-width="3"/><path fill-rule="evenodd" clip-rule="evenodd" d="M37.036 34.223a.709.709 0 1 0-1.418 0v5.672h-9.217a.709.709 0 0 0 0 1.418h9.217v8.51h-9.217a.709.709 0 1 0 0 1.417h9.217v5.67a.709.709 0 1 0 1.418 0v-5.67h9.93v5.67a.709.709 0 0 0 1.417 0v-5.67h9.212a.709.709 0 1 0 0-1.418h-9.212v-8.509h9.212a.709.709 0 0 0 0-1.418h-9.212v-5.672a.709.709 0 0 0-1.417 0v5.672h-9.93v-5.672Zm9.93 7.09v8.51h-9.93v-8.51h9.93Z" fill="#1A1A1A"/><path fill-rule="evenodd" clip-rule="evenodd" d="M54.764 18.625c.782 0 1.417.635 1.417 1.418v2.09h2.536a4.552 4.552 0 0 1 4.552 4.552v31.343a4.552 4.552 0 0 1-4.552 4.552H25.285a4.552 4.552 0 0 1-4.553-4.552V26.685a4.552 4.552 0 0 1 4.553-4.552h2.536v-2.09a1.418 1.418 0 1 1 2.836 0v2.09h22.689v-2.09c0-.783.635-1.418 1.418-1.418ZM27.82 24.968v2.164a1.418 1.418 0 1 0 2.836 0v-2.164h22.689v2.164a1.418 1.418 0 0 0 2.835 0v-2.164h2.536c.948 0 1.717.769 1.717 1.717v31.343c0 .948-.769 1.717-1.717 1.717H25.285a1.717 1.717 0 0 1-1.717-1.717V26.685c0-.948.768-1.717 1.716-1.717h2.537Z" fill="#1A1A1A"/></svg>